<?xml version="1.0" standalone="no"?>
<!DOCTYPE svg PUBLIC "-//W3C//DTD SVG 1.1//EN" "http://www.w3.org/Graphics/SVG/1.1/DTD/svg11.dtd" >
<svg xmlns="http://www.w3.org/2000/svg">
<metadata>Generated by IcoMoon</metadata>
<defs>
<font id="icomoon" horiz-adv-x="512">
<font-face units-per-em="512" ascent="480" descent="-32" />
<missing-glyph horiz-adv-x="512" />
<glyph unicode="&#x20;" d="" horiz-adv-x="256" />
<glyph unicode="&#xe600;" d="M45.156 91.623c-26.924-9.011-45.023-34.232-45.023-62.717v-60.906h511.734v60.906c0 28.484-18.1 53.706-45.039 62.717l-1.75 0.516c-29.859 8.105-51.77 15.82-64.95 20.91-46.694 17.944-58.86 30.906-61.952 37.044-4.436 8.808-2.030 22.348 6.762 38.12 3.826 5.264 7.168 10.152 10.292 15.133l2.218 3.639c9.838 16.414 17.771 34.232 23.566 52.958 6.98 22.551 10.916 46.632 11.665 71.557 0.609 20.411-2.843 40.275-10.214 59.062-7.074 17.96-17.428 34.061-30.765 47.882-25.862 26.689-59.798 41.447-95.544 41.556-36.060-0.109-69.995-14.867-95.857-41.557-13.336-13.821-23.69-29.922-30.765-47.882-7.371-18.787-10.823-38.651-10.214-59.062 0.75-24.925 4.686-49.006 11.666-71.557 5.794-18.726 13.728-36.544 23.566-52.958l2.217-3.639c3.124-4.98 6.466-9.869 9.901-14.523 9.183-16.397 11.588-29.922 7.153-38.729-3.093-6.138-15.258-19.1-61.969-37.075-13.164-5.059-35.075-12.773-64.654-20.801l-2.044-0.594zM118.384 96.043c17.226 6.605 31.64 13.273 42.853 19.786 14.961 8.745 24.409 17.257 28.845 26.050 7.449 14.82 4.794 34.216-7.637 56.127-3.654 5.028-6.622 9.322-9.417 13.695l-0.859 1.375c-21.676 34.669-33.326 74.695-34.639 118.954-0.546 17.928 2.469 35.372 8.934 51.832 6.215 15.758 15.273 29.844 26.924 41.885 22.395 23.144 51.691 35.935 82.473 36.013h0.139c30.922-0.078 60.219-12.869 82.613-36.013 11.65-12.041 20.708-26.127 26.924-41.885 6.465-16.46 9.479-33.904 8.933-51.832-1.312-44.228-12.962-84.285-34.653-118.97l-0.797-1.297c-2.843-4.436-5.81-8.729-8.855-12.837-13.039-22.832-15.695-42.228-8.229-57.048 4.419-8.793 13.868-17.305 28.829-26.050 11.213-6.513 25.627-13.181 42.852-19.786 13.604-5.232 36.17-13.213 66.42-21.411 20.66-6.997 33.623-25.237 33.623-45.726v-42.682h-475.318v42.682c0 20.488 12.962 38.729 32.296 45.351 31.577 8.574 54.143 16.555 67.746 21.787z" />
<glyph unicode="&#xe601;" d="M9.109 363.266h493.766c5.031 0 9.125 4.094 9.125 9.125s-4.094 9.109-9.125 9.109h-493.766c-5.015 0-9.109-4.078-9.109-9.109s4.094-9.125 9.109-9.125zM502.875 233.125h-493.766c-5.015 0-9.109-4.094-9.109-9.125s4.094-9.125 9.109-9.125h493.766c5.031 0 9.125 4.094 9.125 9.125s-4.094 9.125-9.125 9.125zM502.875 84.734h-493.766c-5.016 0-9.109-4.094-9.109-9.125s4.094-9.109 9.109-9.109h493.766c5.031 0 9.125 4.078 9.125 9.109s-4.094 9.125-9.125 9.125z" />
<glyph unicode="&#xe602;" d="M240 448c-132.548 0-240-107.452-240-240s107.452-240 240-240c132.549 0 240 107.451 240 240s-107.451 240-240 240zM240 16c-106.039 0-192 85.961-192 192s85.961 192 192 192c106.039 0 192-85.961 192-192s-85.961-192-192-192zM256 224v64h64v32h-64v32h-32v-32h-64v-128h64v-64h-64v-32h64v-32h32v32h64.001l-0.001 128h-64zM224 224h-32v64h32v-64zM288.001 128h-32.001v64h32.001v-64z" />
<glyph unicode="&#xe603;" d="M257.376-7.36c-33.448 0-62.392 30.496-71.544 74.68h-152.672c-3.832 0-7.312 2.288-8.808 5.824-1.512 3.528-0.768 7.608 1.888 10.4 9.848 10.296 19.224 18.288 27.504 25.344 20.344 17.344 32.632 27.816 32.632 54.856v89.44c0.4 76.96 51.632 145.424 122.744 165.368 3.448 15.632 15.952 36.808 46.864 36.808 30.592 0 43.248-21.856 46.8-37.832 71.504-20.016 122.984-88.056 123.352-164.312v-92.416c0-26.208 10.872-35.088 30.568-51.176 8.688-7.088 18.52-15.12 29.048-26.088 2.648-2.776 3.408-6.864 1.888-10.4-1.504-3.528-4.976-5.824-8.808-5.824h-149.928c-9.152-44.176-38.080-74.672-71.528-74.672zM206.376 63.872c8.576-30.752 28.92-52.064 51-52.064 22.072 0 42.4 21.312 50.984 52.064h-101.984zM57.112 86.496h397.504c-3.472 2.952-6.832 5.696-10.016 8.28-21.008 17.16-37.608 30.712-37.608 66.024v92.384c-0.336 69.672-48.656 131.664-114.912 147.328-4.088 0.968-7.064 4.488-7.36 8.68-0.192 2.704-2.88 27.008-28.72 27.008-26.6 0-28.6-23.176-28.72-25.832-0.224-4.256-3.232-7.848-7.376-8.816-65.888-15.552-113.976-77.976-114.336-148.424v-89.392c0-35.888-18.256-51.432-39.384-69.448-2.904-2.456-5.944-5.048-9.072-7.792zM307.072 396.632c-0.92 0-1.864 0.136-2.792 0.424-50.832 15.472-92.76 2.496-93.184 2.36-5.072-1.6-10.416 1.184-12.032 6.208-1.616 5.032 1.144 10.416 6.168 12.032 1.928 0.624 47.784 15.024 104.624-2.272 5.064-1.528 7.912-6.888 6.384-11.952-1.264-4.136-5.072-6.8-9.168-6.8z" />
<glyph unicode="&#xe604;" d="M419.070 282.672h-50.203v84.438c0 62.249-50.625 112.89-112.859 112.89-62.242 0-112.875-50.641-112.875-112.891v-84.438h-50.195c-13.195 0-23.93-10.719-23.93-23.906v-266.844c0-13.188 10.734-23.922 23.93-23.922h326.132c13.203 0 23.922 10.734 23.922 23.922v266.845c0 13.187-10.719 23.906-23.922 23.906zM161.328 367.109c0 52.188 42.477 94.672 94.68 94.672s94.672-42.484 94.672-94.672v-84.438h-189.352v84.438zM424.805-13.797h-337.594v278.281h337.594v-278.281zM215.82 109.234l1.438-1.625 0.008-20.562c-0.008-22.156 17.367-39.531 38.734-39.531s38.742 17.375 38.742 38.766v21.328l1.438 1.625c2.219 2.516 4.25 5.281 6 8.234 4.844 8.219 7.406 17.625 7.406 27.172 0 29.531-24.031 53.562-53.586 53.562-29.539 0-53.57-24.031-53.57-53.562 0-9.547 2.562-18.953 7.406-27.172 1.742-2.953 3.766-5.719 5.984-8.235zM256 180.016c19.508 0 35.367-15.859 35.367-35.375 0-11.406-5.594-22.156-14.812-28.781l-0.016-29.219c0.016-11.688-9.211-20.891-20.539-20.891s-20.539 9.203-20.539 20.531v29.578c-9.227 6.625-14.828 17.375-14.828 28.781 0 19.516 15.867 35.376 35.367 35.376z" />
<glyph unicode="&#xe605;" d="M262.446 93.994l246.891 247.016c3.548 3.562 3.548 9.344 0 12.906-3.453 3.453-9.438 3.453-12.859 0l-240.485-240.578-240.438 240.579c-1.719 1.703-4.031 2.672-6.453 2.672s-4.734-0.969-6.453-2.672c-3.532-3.562-3.532-9.344 0.016-12.906l246.875-247c3.484-3.454 9.453-3.47 12.906-0.017z" />
<glyph unicode="&#xe606;" d="M414.844 130.258v95.359l86.375 33.125c6.469 2.406 10.781 8.609 10.781 15.438 0 7.375-4.312 13.594-10.719 15.969l-239.547 91.781c-2.016 0.703-3.859 1.031-5.734 1.031-1.328 0-2.984-0.25-4.797-0.719l-240.406-92.062c-6.469-2.407-10.797-8.625-10.797-15.453 0-7.375 4.328-13.578 10.75-15.969l86.406-33.141v-95.359c0-7.062 2.578-17.766 14.859-28.641 8.391-7.438 20.141-14 34.906-19.531 29.297-11 68.047-17.047 109.078-17.047 41.047 0 79.797 6.047 109.078 17.047 14.766 5.5 26.531 12.094 34.922 19.531 12.282 10.875 14.845 21.578 14.845 28.641zM20.656 274.43l235.328 90.203 235.375-90.203-235.375-90.156-235.328 90.156zM396.641 130.258c0-10.578-14.188-22.219-37.953-31.141-27.281-10.234-63.75-15.844-102.688-15.844-38.922 0-75.391 5.609-102.688 15.844-23.75 8.922-37.938 20.562-37.938 31.141v88.391l134.859-51.656c6.531-1.859 8.297-1.156 11.281-0.094l135.125 51.75v-88.391z" />
<glyph unicode="&#xe607;" d="M364.736 428.544h-217.456c-14.456 0-26.2-11.76-26.2-26.216v-287.344c0-14.44 11.752-26.184 26.2-26.184h75.616l4.568 14.56h-80.184c-6.424 0-11.64 5.216-11.64 11.624v287.344c0 6.432 5.216 11.656 11.64 11.656h217.456c6.408 0 11.624-5.224 11.624-11.656v-287.344c0-6.408-5.216-11.624-11.624-11.624h-5.024l5.496-14.56c14.224 0.248 25.72 11.904 25.72 26.184v287.344c-0.008 14.464-11.752 26.216-26.192 26.216zM387.424 114.984c0-11.472-8.712-21.112-19.856-22.512l-2.792 7.376c8.328 0.032 15.088 6.816 15.088 15.144v287.336c0 8.36-6.784 15.168-15.128 15.168h-217.456c-8.344 0-15.144-6.808-15.144-15.168v-287.344c0-8.344 6.8-15.144 15.144-15.144h75.416l-2.368-7.544h-73.048c-12.512 0-22.704 10.168-22.704 22.688v287.344c0 12.528 10.184 22.72 22.704 22.72h217.456c12.504 0 22.688-10.184 22.688-22.72v-287.344zM290.552 216.264c-27.4 0-49.68-22.296-49.68-49.704 0-27.392 22.28-49.688 49.68-49.688s49.696 22.296 49.696 49.688c0 27.408-22.296 49.704-49.696 49.704zM290.552 120.376c-25.464 0-46.176 20.72-46.176 46.184s20.72 46.2 46.176 46.2 46.176-20.736 46.176-46.2-20.712-46.184-46.176-46.184zM340 114.144l1.464 1.344c6.176 6.184 8.96 14.768 7.632 23.504l-0.072 0.504 0.192 0.456c1.336 3.128 2.456 6.608 3.32 10.392l0.104 0.504 0.376 0.344c5.184 5.168 8.064 12.080 8.064 19.44 0 9.888-5.184 18.768-13.904 23.736l-0.416 0.248-0.24 0.44c-0.4 0.72-0.84 1.408-1.296 2.096l-0.408 0.624-0.176 0.784c0.032 7.312-2.816 14.2-8.016 19.408-4.792 4.808-11.248 7.624-18.168 7.92l-0.944 0.048-0.488 0.808c-5.040 8.4-13.816 13.416-23.464 13.416-9.744 0-18.544-5.048-23.536-13.512l-0.728-1.232-1.352 0.472c-9.656 3.304-21.12 0.656-28.272-6.488-7-7-9.608-17.36-6.8-27.016l0.184-0.64-1.216-2.608-0.432-0.312c-7.2-5.248-11.336-13.312-11.336-22.128 0-7.856 3.312-15.128 9.328-20.44l0.376-0.328 0.144-0.488c0.544-1.816 1.2-3.624 1.992-5.512l0.176-0.44-0.072-0.488c-1.296-8.784 1.48-17.344 7.648-23.512 1.656-1.656 3.512-3.064 5.696-4.312l1.208-0.704-17.28-55.272c-0.224-0.72 0.032-1.504 0.632-1.936s1.4-0.472 2.032-0.048l22.024 14.936 9.464-27.672c0.24-0.72 0.912-1.184 1.664-1.184h0.016c0.76 0 1.432 0.504 1.656 1.216l17.376 55.36 1.584-0.392c5.368-1.296 10.888-0.92 16.032 1.096l1.648 0.656 29.168-76.64c0.256-0.688 0.904-1.144 1.632-1.144 0.024 0 0.040 0 0.056 0 0.752 0.032 1.408 0.528 1.624 1.248l8.784 28.904 20.848-12.096c0.64-0.36 1.448-0.296 2 0.184 0.568 0.472 0.776 1.248 0.512 1.952l-28.040 74.504zM344.504 53.768c-0.464 0.264-1.040 0.312-1.512 0.112-0.504-0.2-0.88-0.608-1.040-1.128l-7.92-26.128-27.976 73.512c-0.168 0.44-0.504 0.784-0.928 0.968-0.216 0.112-0.472 0.16-0.704 0.16-0.216 0-0.44-0.048-0.64-0.128l-3.304-1.296c-4.464-1.752-9.232-2.080-13.92-0.952l-3.176 0.768c-0.896 0.2-1.816-0.28-2.088-1.168l-16.264-51.816-8.472 24.8c-0.176 0.512-0.584 0.92-1.104 1.096s-1.104 0.096-1.544-0.216l-19.768-13.408 16.2 51.832c0.248 0.784-0.080 1.64-0.8 2.048l-2.44 1.408c-1.904 1.096-3.52 2.312-4.952 3.736-5.376 5.392-7.816 12.856-6.664 20.512l0.152 0.968c0.048 0.328 0.016 0.656-0.112 0.952l-0.384 0.888c-0.704 1.688-1.336 3.392-1.864 5.168l-0.28 0.952c-0.104 0.312-0.272 0.592-0.512 0.8l-0.76 0.672c-5.248 4.64-8.152 10.968-8.152 17.816 0 7.672 3.608 14.72 9.904 19.28l0.792 0.576c0.24 0.184 0.432 0.408 0.552 0.688l1.688 3.624c0.176 0.376 0.216 0.816 0.096 1.216l-0.36 1.264c-2.464 8.44-0.184 17.472 5.904 23.576 6.216 6.208 16.248 8.504 24.656 5.632l2.704-0.92c0.768-0.264 1.648 0.056 2.080 0.776l1.448 2.456c4.368 7.384 12.040 11.8 20.52 11.8 8.4 0 16.048-4.384 20.472-11.72l0.968-1.624c0.296-0.504 0.832-0.816 1.424-0.84l1.872-0.080c6.056-0.264 11.672-2.72 15.848-6.904 4.536-4.528 7.024-10.528 7.016-17.248l0.296-1.512c0.040-0.232 0.136-0.44 0.256-0.624l0.56-0.872c0.408-0.624 0.816-1.232 1.16-1.872l0.48-0.856c0.16-0.296 0.4-0.528 0.68-0.704l0.848-0.488c7.584-4.344 12.136-12.080 12.136-20.688 0-6.424-2.504-12.44-7.048-16.952l-0.728-0.704c-0.224-0.232-0.384-0.528-0.464-0.856l-0.232-0.984c-0.808-3.56-1.856-6.856-3.128-9.8l-0.376-0.928c-0.136-0.296-0.168-0.624-0.12-0.952l0.16-0.984c1.152-7.64-1.272-15.112-6.608-20.456l-2.272-2.096c-0.528-0.488-0.704-1.248-0.464-1.904l26.736-71-18.528 10.752zM185.080 368.952h142v-7.008h-142v7.008zM185.080 332.144h142v-7.016h-142v7.016z" />
<glyph unicode="&#xe608;" d="M482.328 228.752c-4.12 4.8-102.464 117.912-226.336 117.912-123.864 0-222.192-113.112-226.32-117.912l-4.072-4.752 4.072-4.752c4.12-4.832 102.456-117.912 226.32-117.912 123.88 0 222.192 113.088 226.336 117.912l4.072 4.752-4.072 4.752zM255.992 115.944c-103.104 0-190.776 86.592-210.896 108.056 20.128 21.44 107.8 108.048 210.896 108.048s190.768-86.608 210.912-108.048c-20.12-21.464-107.696-108.056-210.912-108.056zM255.992 269.552c-25.128 0-45.56-20.424-45.56-45.552 0-25.136 20.432-45.552 45.56-45.552s45.584 20.424 45.584 45.552c-0.008 25.128-20.456 45.552-45.584 45.552zM255.992 193.032c-17.064 0-30.944 13.904-30.944 30.968s13.88 30.968 30.944 30.968 30.968-13.904 30.968-30.968c-0.008-17.064-13.904-30.968-30.968-30.968z" />
<glyph unicode="&#xe609;" d="M256.008 105.584c-119.576 0-214.48 109.176-218.48 113.816l-3.928 4.592 3.928 4.584c3.976 4.664 98.904 113.84 218.48 113.84 119.552 0 214.48-109.176 218.456-113.84l3.928-4.584-3.928-4.592c-3.968-4.632-98.904-113.816-218.456-113.816zM52.44 223.992c19.424-20.688 104.056-104.304 203.568-104.304 99.52 0 184.144 83.608 203.576 104.304-19.432 20.72-104.080 104.328-203.576 104.328-99.512-0.008-184.144-83.616-203.568-104.328zM292.936 224.008c0-20.4-16.52-36.952-36.928-36.952s-36.944 16.544-36.944 36.952c0 20.376 16.544 36.92 36.944 36.92s36.928-16.536 36.928-36.92z" />
<glyph unicode="&#xe60a;" d="M450.648 164.784v116.72l10.272 3.472-206.352 69.544-206.384-69.544 111.52-37.568 0.056 0.232 97.328-31.912 87.656 29.72 6.088-23.256c0.376-1.768 0.688-3.080 0.928-4.104 0.328-1.408 0.536-2.184 0.536-2.792 0-10.232-76.4-54.12-100.448-54.12-23.040 0-92.144 43.464-92.144 54.12 0 0.96 0.36 1.96 1.128 3.040l0.168 0.432 0.168 0.552 6.176 25.504-7.64 2.584-6.080-26.616c-1.088-1.816-1.632-3.656-1.632-5.504 0-17.344 76.256-60.672 99.848-60.672 24.32 0 108.144 43.784 108.144 60.672 0 1.264-0.256 2.4-0.672 4.112-0.24 0.984-0.544 2.24-0.88 3.912l-6.088 24.712 32.424 11-0.096 0.256 56.32 18.984v-111.824l-15.344-27.688 19.648-31.912 18.512 32.056-13.16 25.888zM416.416 280.152l-159.392-53.912-178.632 58.736 176.168 59.36 161.848-54.544h-161.84v-9.648h161.848zM445.264 125.688l-7.424 14.168 7.088 14.872 7.648-15.032-7.312-14.008z" />
<glyph unicode="&#xe60b;" d="M256 446.424c-122.624 0-222.448-99.784-222.448-222.448 0-122.616 99.824-222.408 222.448-222.408 122.656 0 222.448 99.792 222.448 222.408 0 122.664-99.792 222.448-222.448 222.448zM256 23c-110.832 0-201.016 90.152-201.016 200.984s90.184 201.016 201.016 201.016c110.832 0 201.016-90.184 201.016-201.016s-90.184-200.984-201.016-200.984zM266.672 239.584c-29.504 12.528-39.84 21.32-39.84 38.592 0 13.864 7.64 29.472 33.736 29.472 21.68 0 35.544-7.824 42.664-11.864l8.456 22.352c-10.168 5.744-24.024 11.192-44 11.824v32.92h-21.352v-33.88c-30.84-5.12-50.784-26.432-50.784-54.528 0-29.472 21.352-45.368 55.856-58.936 25.096-10.16 36.144-21.688 36.104-40.296 0.040-19.344-14.088-33.208-38.104-33.208-18.984 0-36.624 6.752-48.448 14.528l-8.12-22.648c11.824-8.456 31.84-14.568 51.448-14.936v-33.84h21.352v35.208c34.872 5.416 53.52 30.504 53.52 57.568 0.008 30.128-17.608 47.408-52.488 61.672z" />
<glyph unicode="&#xe60c;" d="M416.52 364.376v85.624h-85.648v-28.056h-86.024v-188.304h-33.8v51.632h-115.568v-115.584h115.568v51.632h33.8v-188.32h86.024v-35h85.648v85.648h-85.648v-38.328h-73.712v176h73.712v-36.656h85.648v85.632h-85.648v-36.656h-73.712v175.984h73.712v-45.248h85.648zM404.2 437.672v-60.976h-61v60.976h61zM404.2 257.968v-60.976h-61v60.976h61zM404.2 71.32v-61h-61v61h61zM107.808 182.016v90.912h90.912v-90.912h-90.912z" />
<glyph unicode="&#xe60d;" d="M478.904 216.52l-48.648 44.056v105.096c0 4.528-3.672 8.192-8.192 8.192h-42.824c-2.176 0-4.264-0.856-5.808-2.4s-2.408-3.632-2.384-5.816l0.112-51.544-106.104 96.104c-3.104 2.808-7.784 2.832-10.928 0.072l-220.96-194.624c-2.824-2.48-3.6-6.536-1.88-9.88 1.696-3.32 5.44-5.096 9.088-4.264l49.112 11.088v-151.464c-0.048-1.32-0.072-8.152 4.872-13.288 2.192-2.256 6.12-4.968 12.448-4.968 11.808 0 109.592 0.12 109.592 0.12 4.536 0 8.184 3.672 8.192 8.192l0.128 90.552c-0.080 1.056 0.112 3.736 1.2 4.928 0.736 0.784 2.312 0.968 3.48 0.968h45.496c2.040 0 4.8-0.328 6.216-1.8 1.56-1.6 1.536-4.384 1.512-4.816l-0.208-89.544c0-2.168 0.848-4.256 2.392-5.808 1.536-1.536 3.648-2.416 5.808-2.416h107.304c7.296 0 11.776 3.080 14.224 5.648 5.72 5.952 5.528 14.112 5.496 14.672v151.496l53.896-12.608c3.672-0.872 7.392 0.872 9.144 4.176 1.744 3.304 1.008 7.36-1.776 9.88zM387.464 357.472h26.416v-82.048l-26.288 23.808-0.128 58.24zM411.304 233.392c-2.416 0.576-5.008 0-6.952-1.56-1.952-1.552-3.104-3.92-3.104-6.424v-162.032c0-0.88-0.32-2.504-0.936-3.136-0.504-0.496-1.704-0.56-2.392-0.56h-99.088l0.176 80.76c0.072 0.984 0.488 9.76-5.832 16.544-3.032 3.208-8.624 7.048-18.288 7.048h-45.496c-8.168 0-13.032-3.48-15.672-6.392-5.624-6.232-5.528-14.584-5.384-16.928l-0.128-81.328c-23.76-0.024-91.688-0.112-101.408-0.112-0.296 0-0.48 0.016-0.6 0.016-0.016 0-0.040 0-0.056 0-0.152 0.328-0.264 0.952-0.264 1.512v162.048c0 2.488-1.152 4.848-3.088 6.408-1.952 1.552-4.504 2.12-6.92 1.592l-27.792-6.272 191.376 168.56 111.736-101.192v-0.488h0.528l72.672-65.824-33.088 7.76z" />
<glyph unicode="&#xe60e;" d="M34.552 382.792h442.888v-14.68h-442.888v14.68zM34.552 232.568h442.888v-14.688h-442.888v14.688zM34.552 79.904h442.888v-14.704h-442.888v14.704z" />
<glyph unicode="&#xe60f;" d="M47.672 390.608h238.752v11.792h-250.544v-356.808h250.544v11.816h-238.752zM350.608 349.52l-11.648-11.624 105.664-105.656h-349.936v-16.448h349.912l-105.64-105.648 11.648-11.648 125.512 125.512z" />
<glyph unicode="&#xe610;" d="M296.48 395.016l-1.168 0.24 0.768-11.304 0.664-0.144c88.272-19.048 152.328-98.368 152.328-188.592 0-106.456-86.6-193.080-193.064-193.080-106.456 0-193.064 86.624-193.064 193.080 0 90.208 64.128 169.464 152.48 188.456l0.728 0.152v11.224l-1.104-0.232c-94.448-19.352-162.992-103.296-162.992-199.6 0-112.448 91.48-203.936 203.944-203.936s203.944 91.488 203.944 203.936c0 96.616-68.752 180.64-163.464 199.8zM250.568 456.712h10.856v-156.672h-10.856v156.672z" />
<glyph unicode="&#xe611;" d="M382.547 422.562c-16.375 17.969-35.469 32.094-56.75 41.953-22.125 10.266-45.625 15.485-69.828 15.485-24.172 0-47.641-5.219-69.766-15.484-21.281-9.859-40.375-23.984-56.781-41.953-33.531-36.797-52-85.641-52-137.547 0-49.516 22.328-110.672 66.375-181.703 34.656-55.875 73.719-103.203 93.906-126.453 4.594-5.688 11.188-8.859 18.281-8.859h0.031c7.078 0 13.688 3.172 18.125 8.688 20.328 23.406 59.375 70.703 94.031 126.625 44.062 71.031 66.406 132.172 66.406 181.703 0.001 51.905-18.468 100.749-52.030 137.545zM352.703 112.906c-34.047-54.891-72.484-101.469-92.375-124.344l-4.312-4.969-4.328 4.969c-19.859 22.812-58.266 69.312-92.391 124.344-19.172 30.906-34.25 60.203-44.875 87.125-12.469 31.672-18.797 60.281-18.797 84.984 0 97.453 71.953 176.734 160.391 176.766 88.406-0.031 160.344-79.312 160.344-176.766 0-24.719-6.312-53.312-18.812-84.984-10.564-26.859-25.657-56.172-44.845-87.125zM256 370.609c-45.906 0-83.266-37.344-83.266-83.266s37.359-83.281 83.266-83.281c45.891 0 83.25 37.359 83.25 83.281s-37.359 83.266-83.25 83.266zM256 222.312c-35.859 0-65.047 29.156-65.047 65.031 0 35.859 29.188 65.031 65.047 65.031s65.047-29.172 65.047-65.031c0-35.874-29.188-65.031-65.047-65.031z" />
<glyph unicode="&#xe612;" d="M0.133-0.516v-31.484h511.734v31.484c0 28.906-18.484 55.297-44.938 64.203-0.484 0.141-7.453 1.234-9.734 1.438-0.188 0-20.344 1.859-54.547 9.688-54.438 12.453-66.703 25.344-69.453 30.328-0.906 2.453-1.453 5.016-1.594 12.609l-0.094 5.031 4.969 0.75c17.344 2.562 39.688 9.891 66.391 21.781 22.688 10.094 46.531 23.219 46.766 23.344 2.609 1.531 4.312 4.531 4.312 7.75 0 5.031-4.062 9.109-9.094 9.109-0.062 0-6.125 0.141-9.906 0.297-13.766 0.594-42.438 1.828-54.344 18.75-7.5 10.656-7.938 26.906-1.312 48.344l0.469 1.5-0.125 0.203c8.062 25.141 12.438 50.594 13.219 76.906 0.609 20.406-2.812 40.297-10.203 59.078-7.078 18-17.438 34.109-30.766 47.891-25.813 26.672-59.688 41.422-95.375 41.516-36.688-0.094-70.562-14.844-96.391-41.516-13.328-13.781-23.672-29.891-30.766-47.891-7.375-18.781-10.812-38.672-10.219-59.078 0.812-26.312 5.156-51.766 12.969-75.625l0.594-2.938c6.656-21.484 6.188-37.734-1.312-48.391-11.906-16.922-40.562-18.156-54.344-18.75-3.75-0.156-9.844-0.297-9.906-0.297-5 0-9.094-4.078-9.094-9.109 0-3.219 1.719-6.219 4.469-7.828 0.094-0.047 23.938-13.172 46.625-23.266 26.719-11.891 49.031-19.219 66.375-21.781l4.969-0.75-0.078-5.031c-0.141-7.594-0.688-10.156-1.203-11.688-3.219-5.938-15.562-18.828-69.844-31.25-34.203-7.828-54.344-9.688-54.562-9.688-2.375-0.219-10.484-1.625-10.5-1.625-25.657-8.654-44.157-35.092-44.157-64.014zM49.352 45.891c4.141 1.562 11.625 2.594 22 4 11.781 1.609 26.469 3.609 42.047 7.141 19.547 4.469 35.891 9.5 48.578 14.906 17.562 7.469 28.438 15.781 33.266 25.375 3.516 7.047 3.578 17.719 3.281 34.453-0.109 4.922-4.188 8.953-9.109 8.953l-0.969-0.016c-20.156 0-50.875 11.859-73.125 21.812l-13.656 6.094 14.25 4.578c13.438 4.312 23.656 11.328 30.359 20.859 10.734 15.25 12.172 36.375 4.266 62.797l-0.656 3.219c-7.562 22.656-11.781 46.844-12.531 72-0.531 17.969 2.469 35.406 8.938 51.844 6.219 15.75 15.25 29.859 26.906 41.875 22.359 23.125 51.594 35.906 82.312 35.969 31.688-0.062 60.938-12.844 83.297-35.969 11.641-12.016 20.688-26.125 26.891-41.875 6.484-16.438 9.5-33.875 8.969-51.844-0.781-25.156-5-49.344-12.531-71.969l-0.562-1.641 0.094-0.516c-8.094-27.516-6.656-48.641 4.062-63.891 6.719-9.531 16.938-16.547 30.375-20.859l14.219-4.578-13.641-6.094c-22.25-9.953-52.969-21.812-72.953-21.812 0 0-0.031 0-0.047 0-6.031 0-10.094-4.016-10.188-8.906-0.312-16.75-0.25-27.422 3.266-34.516 4.844-9.562 15.719-17.875 33.266-25.344 12.703-5.406 29.047-10.438 48.578-14.906 15.562-3.531 30.25-5.531 42.062-7.141 10.344-1.406 17.844-2.438 21.969-4 9.219-3.531 31.047-25.266 31.047-46.406v-13.266h-475.362v13.266c0 21.142 21.813 42.876 31.032 46.408z" />
<glyph unicode="&#xe613;" d="M384.188 223.5c-2.844 0-5.656-0.109-8.438-0.297l-9.516-0.625 3.922 8.703c4.188 9.266 7.844 18.906 10.859 28.656 6.984 22.562 10.906 46.625 11.656 71.547 0.609 20.406-2.828 40.281-10.203 59.062-7.078 17.969-17.438 34.078-30.781 47.891-25.859 26.688-59.781 41.469-95.531 41.563-36.062-0.094-69.984-14.875-95.844-41.562-13.344-13.812-23.703-29.922-30.781-47.891-7.375-18.781-10.812-38.641-10.219-59.062 0.766-24.922 4.688-49 11.672-71.547 5.781-18.719 13.719-36.547 23.578-52.953l2.219-3.641c3.125-4.984 6.438-9.875 9.875-14.531 9.188-16.406 11.594-29.922 7.172-38.734-3.094-6.141-15.266-19.094-61.969-37.062-13.172-5.062-35.078-12.797-64.672-20.797l-2.031-0.594c-26.938-9.031-45.031-34.234-45.031-62.734v-60.892h384.062c70.406 0 127.688 57.297 127.688 127.75 0 70.438-57.281 127.75-127.687 127.75zM18.328-13.781v42.672c0 20.5 12.984 38.734 32.297 45.359 31.594 8.578 54.156 16.547 67.766 21.781 17.203 6.609 31.641 13.281 42.844 19.797 14.969 8.734 24.406 17.234 28.844 26.047 7.453 14.812 4.797 34.219-7.641 56.125-3.656 5.016-6.625 9.312-9.406 13.688l-0.859 1.375c-21.672 34.688-33.328 74.703-34.641 118.969-0.547 17.938 2.469 35.375 8.938 51.828 6.203 15.766 15.25 29.844 26.906 41.875 22.406 23.156 51.688 35.953 82.484 36.016 31.078-0.062 60.359-12.859 82.766-36.016 11.656-12.031 20.703-26.109 26.906-41.875 6.469-16.453 9.469-33.891 8.938-51.828-1.25-42.094-11.891-80.438-31.625-113.969l-1.031-1.75-1.906-0.719c-49.908-18.453-83.408-66.625-83.408-119.844 0-38.75 17.281-74.969 47.438-99.375l12.578-10.156h-298.188zM461.594 18.281c-20.672-20.688-48.156-32.062-77.406-32.062s-56.75 11.375-77.422 32.062c-20.688 20.688-32.078 48.188-32.078 77.469 0 29.25 11.391 56.766 32.062 77.438 20.688 20.703 48.188 32.094 77.438 32.094s56.734-11.391 77.406-32.094c20.688-20.672 32.078-48.188 32.078-77.438 0-29.281-11.391-56.781-32.078-77.469zM428.844 126.797l-56.703-56.75-25.172 25.203c-1.719 1.703-4 2.656-6.438 2.656s-4.719-0.953-6.438-2.672c-3.531-3.547-3.531-9.328 0-12.891l31.547-31.672c3.438-3.453 9.438-3.453 12.859 0l63.219 63.219c3.531 3.562 3.531 9.344 0 12.906-3.437 3.454-9.437 3.454-12.874 0.001z" />
<glyph unicode="&#xe614;" d="M384.188 223.531c-2.844 0-5.656-0.125-8.438-0.312l-9.516-0.625 3.922 8.703c4.188 9.266 7.844 18.906 10.859 28.656 6.985 22.547 10.907 46.625 11.673 71.547 0.594 20.422-2.844 40.281-10.219 59.062-7.078 17.969-17.438 34.078-30.781 47.891-25.86 26.688-59.782 41.453-95.532 41.547-36.062-0.094-69.984-14.859-95.844-41.547-13.344-13.812-23.703-29.922-30.781-47.891-7.375-18.781-10.812-38.641-10.219-59.062 0.766-24.922 4.688-49 11.672-71.547 5.781-18.719 13.719-36.547 23.578-52.953l2.219-3.641c3.125-4.984 6.438-9.875 9.875-14.531 9.188-16.391 11.594-29.922 7.172-38.734-3.094-6.125-15.266-19.094-61.969-37.062-13.172-5.062-35.078-12.781-64.672-20.797l-2.031-0.594c-26.938-9.016-45.031-34.234-45.031-62.734v-60.907h384.062c70.406 0 127.688 57.312 127.688 127.75 0 70.453-57.281 127.781-127.687 127.781zM18.328-13.781v42.688c0 20.5 12.984 38.734 32.297 45.359 31.594 8.578 54.156 16.547 67.766 21.781 17.203 6.609 31.641 13.281 42.844 19.797 14.984 8.734 24.422 17.25 28.844 26.062 7.453 14.797 4.797 34.188-7.641 56.094-3.656 5.031-6.625 9.328-9.406 13.703l-0.859 1.375c-21.672 34.672-33.328 74.734-34.641 118.969-0.547 17.922 2.469 35.359 8.938 51.828 6.203 15.75 15.25 29.844 26.906 41.875 22.406 23.156 51.688 35.938 82.484 36.031 31.078-0.094 60.359-12.875 82.766-36.031 11.656-12.031 20.703-26.125 26.906-41.875 6.469-16.469 9.484-33.906 8.938-51.828-1.25-42.109-11.891-80.453-31.625-113.969l-1.031-1.766-1.906-0.688c-49.908-18.468-83.408-66.64-83.408-119.874 0-38.75 17.281-74.953 47.438-99.344l12.578-10.188h-298.188zM461.594 18.312c-20.672-20.703-48.156-32.094-77.406-32.094s-56.75 11.391-77.438 32.094c-20.672 20.672-32.062 48.188-32.062 77.438 0 29.281 11.391 56.781 32.062 77.469 20.688 20.688 48.188 32.062 77.438 32.062s56.734-11.375 77.406-32.062c20.688-20.688 32.078-48.188 32.078-77.469 0-29.25-11.391-56.766-32.078-77.438zM397.062 91.438l25.156 25.172c3.547 3.562 3.547 9.344 0 12.906-3.438 3.406-9.422 3.406-12.875-0.016l-25.156-25.188-25.172 25.203c-3.422 3.406-9.438 3.422-12.859-0.016-3.562-3.547-3.562-9.328 0-12.891l25.156-25.172-25.156-25.172c-3.562-3.547-3.562-9.328 0-12.891 3.422-3.438 9.438-3.438 12.859 0l25.172 25.188 25.156-25.188c3.438-3.438 9.438-3.438 12.875 0 1.719 1.734 2.656 4.016 2.656 6.453 0 2.422-0.938 4.719-2.656 6.422l-25.156 25.19z" />
<glyph unicode="&#xe615;" d="M384.188 223.531c-2.844 0-5.656-0.125-8.438-0.312l-9.516-0.625 3.922 8.703c4.188 9.266 7.844 18.906 10.859 28.656 6.985 22.547 10.907 46.625 11.673 71.547 0.594 20.422-2.844 40.281-10.219 59.062-7.078 17.969-17.438 34.078-30.781 47.891-25.86 26.688-59.782 41.453-95.532 41.547-36.062-0.094-69.984-14.859-95.844-41.547-13.344-13.812-23.703-29.922-30.781-47.891-7.375-18.781-10.812-38.641-10.219-59.062 0.766-24.922 4.688-49 11.672-71.547 5.797-18.719 13.719-36.547 23.578-52.953l2.219-3.641c3.109-4.984 6.438-9.875 9.875-14.531 9.188-16.391 11.594-29.922 7.172-38.734-3.094-6.125-15.266-19.094-61.969-37.062-13.172-5.062-35.078-12.781-64.672-20.797l-2.031-0.594c-26.938-9.016-45.031-34.234-45.031-62.734v-60.907h384.062c70.406 0 127.688 57.312 127.688 127.75 0 70.453-57.281 127.781-127.687 127.781zM18.328-13.781v42.688c0 20.5 12.984 38.734 32.297 45.359 31.578 8.578 54.156 16.547 67.766 21.781 17.203 6.609 31.641 13.281 42.859 19.797 14.969 8.734 24.406 17.25 28.828 26.062 7.453 14.797 4.797 34.188-7.641 56.094-3.656 5.031-6.625 9.328-9.406 13.703l-0.859 1.375c-21.672 34.672-33.328 74.703-34.641 118.969-0.547 17.922 2.469 35.359 8.938 51.828 6.203 15.75 15.25 29.844 26.906 41.875 22.406 23.156 51.688 35.938 82.484 36.031 31.078-0.094 60.359-12.875 82.766-36.031 11.656-12.031 20.703-26.125 26.906-41.875 6.469-16.469 9.484-33.906 8.938-51.828-1.25-42.109-11.891-80.453-31.625-113.969l-1.031-1.766-1.906-0.688c-49.907-18.468-83.407-66.64-83.407-119.874 0-38.75 17.281-74.953 47.438-99.344l12.578-10.188h-298.188zM461.594 18.312c-20.672-20.703-48.156-32.094-77.406-32.094s-56.75 11.391-77.438 32.094c-20.672 20.672-32.062 48.188-32.062 77.438 0 29.281 11.391 56.781 32.062 77.469 20.688 20.688 48.188 32.062 77.438 32.062s56.734-11.375 77.406-32.062c20.688-20.688 32.078-48.188 32.078-77.469 0-29.25-11.391-56.766-32.078-77.438zM430.109 103.625h-89.391c-5.016 0-9.094-4.078-9.094-9.094 0-5.031 4.078-9.125 9.094-9.125h89.391c5.016 0 9.094 4.094 9.094 9.125 0 5.016-4.078 9.094-9.094 9.094z" />
<glyph unicode="&#xe616;" d="M384.188 223.531c-2.844 0-5.656-0.125-8.438-0.312l-9.516-0.625 3.922 8.703c4.188 9.266 7.844 18.906 10.859 28.656 6.985 22.547 10.907 46.625 11.673 71.547 0.594 20.422-2.844 40.281-10.219 59.062-7.078 17.969-17.438 34.078-30.781 47.891-25.86 26.688-59.782 41.453-95.532 41.547-36.062-0.094-69.984-14.859-95.844-41.547-13.344-13.812-23.703-29.922-30.781-47.891-7.375-18.781-10.812-38.641-10.219-59.062 0.766-24.922 4.688-49 11.672-71.547 5.781-18.719 13.719-36.547 23.578-52.953l2.219-3.641c3.125-4.984 6.438-9.875 9.875-14.531 9.188-16.391 11.594-29.922 7.172-38.734-3.094-6.125-15.266-19.094-61.969-37.062-13.172-5.062-35.078-12.781-64.672-20.797l-2.031-0.594c-26.938-9.016-45.031-34.234-45.031-62.734v-60.907h384.062c70.406 0 127.688 57.312 127.688 127.75 0 70.453-57.281 127.781-127.687 127.781zM18.328-13.781v42.688c0 20.5 12.984 38.734 32.297 45.359 31.594 8.578 54.156 16.547 67.766 21.781 17.203 6.609 31.641 13.281 42.844 19.797 14.969 8.734 24.406 17.25 28.844 26.047 7.453 14.812 4.797 34.203-7.641 56.109-3.656 5.031-6.625 9.328-9.406 13.703l-0.859 1.375c-21.672 34.672-33.328 74.703-34.641 118.969-0.547 17.922 2.469 35.359 8.938 51.828 6.203 15.75 15.25 29.844 26.906 41.875 22.406 23.156 51.688 35.938 82.484 36.031 31.078-0.094 60.359-12.875 82.766-36.031 11.656-12.031 20.703-26.125 26.906-41.875 6.469-16.469 9.484-33.906 8.938-51.828-1.25-42.094-11.891-80.438-31.625-113.969l-1.031-1.766-1.906-0.688c-49.908-18.468-83.408-66.64-83.408-119.874 0-38.75 17.281-74.953 47.438-99.344l12.578-10.188h-298.188zM461.594 18.312c-20.672-20.703-48.156-32.094-77.406-32.094s-56.75 11.391-77.438 32.094c-20.672 20.672-32.062 48.188-32.062 77.438 0 29.281 11.391 56.781 32.062 77.469 20.688 20.688 48.188 32.062 77.438 32.062s56.734-11.375 77.406-32.062c20.688-20.688 32.078-48.188 32.078-77.469 0-29.25-11.391-56.766-32.078-77.438zM429.484 101.172h-35.578v35.609c0 5.031-4.094 9.109-9.109 9.109s-9.109-4.078-9.109-9.109v-35.609h-35.578c-5.016 0-9.109-4.094-9.109-9.109 0-5.031 4.094-9.125 9.109-9.125h35.578v-35.594c0-5.031 4.094-9.109 9.109-9.109s9.109 4.078 9.109 9.109v35.594h35.578c5.016 0 9.109 4.094 9.109 9.125 0.001 5.015-4.093 9.109-9.109 9.109z" />
<glyph unicode="&#xe617;" d="M509.329 212.656l-246.814 246.94c-1.719 1.719-4 2.672-6.437 2.672s-4.719-0.938-6.438-2.672c-1.766-1.75-246.971-247.080-246.971-247.080-3.562-3.562-3.562-9.344 0-12.906 3.438-3.469 9.438-3.453 12.875 0l240.534 240.642 240.376-240.502c3.453-3.422 9.438-3.422 12.891 0 3.547 3.562 3.547 9.344-0.016 12.906zM439.798 198.094l-177.002 177.048c-3.688 3.922-9.875 3.797-13.328 0.125l-178.377-178.501c-1.516-1.906-2.172-3.859-2.172-5.875v-181.189c0-13.219 10.734-23.969 23.938-23.969h326.285c13.203 0 23.938 10.75 23.938 23.969v181.314c0 2.422-0.938 4.703-2.625 6.406l-0.657 0.672zM306.233 3.982h-100.437v159.814h100.437v-159.814zM324.438 3.982v154.095c0 13.203-10.735 23.954-23.938 23.954h-88.984c-13.203 0-23.938-10.751-23.938-23.954v-154.095h-100.455v183.112l168.955 169.032 168.798-168.876 0.016-183.268h-100.454z" />
<glyph unicode="&#xe618;" d="M257.376-7.36c-33.448 0-62.392 30.496-71.544 74.68h-152.672c-3.832 0-7.312 2.288-8.808 5.824-1.512 3.528-0.768 7.608 1.888 10.4 9.848 10.296 19.224 18.288 27.504 25.344 20.344 17.344 32.632 27.816 32.632 54.856v89.44c0.4 76.96 51.632 145.424 122.744 165.368 3.448 15.632 15.952 36.808 46.864 36.808 30.592 0 43.248-21.856 46.8-37.832 71.504-20.016 122.984-88.056 123.352-164.312v-92.416c0-26.208 10.872-35.088 30.568-51.176 8.688-7.088 18.52-15.12 29.048-26.088 2.648-2.776 3.408-6.864 1.888-10.4-1.504-3.528-4.976-5.824-8.808-5.824h-149.928c-9.152-44.176-38.080-74.672-71.528-74.672zM206.376 63.872c8.576-30.752 28.92-52.064 51-52.064 22.072 0 42.4 21.312 50.984 52.064h-101.984zM57.112 86.496h397.504c-3.472 2.952-6.832 5.696-10.016 8.28-21.008 17.16-37.608 30.712-37.608 66.024v92.384c-0.336 69.672-48.656 131.664-114.912 147.328-4.088 0.968-7.064 4.488-7.36 8.68-0.192 2.704-2.88 27.008-28.72 27.008-26.6 0-28.6-23.176-28.72-25.832-0.224-4.256-3.232-7.848-7.376-8.816-65.888-15.552-113.976-77.976-114.336-148.424v-89.392c0-35.888-18.256-51.432-39.384-69.448-2.904-2.456-5.944-5.048-9.072-7.792zM307.072 396.632c-0.92 0-1.864 0.136-2.792 0.424-50.832 15.472-92.76 2.496-93.184 2.36-5.072-1.6-10.416 1.184-12.032 6.208-1.616 5.032 1.144 10.416 6.168 12.032 1.928 0.624 47.784 15.024 104.624-2.272 5.064-1.528 7.912-6.888 6.384-11.952-1.264-4.136-5.072-6.8-9.168-6.8z" />
<glyph unicode="&#xe619;" d="M47.672 390.608h238.752v11.792h-250.544v-356.808h250.544v11.816h-238.752zM350.608 349.52l-11.648-11.624 105.664-105.656h-349.936v-16.448h349.912l-105.64-105.648 11.648-11.648 125.512 125.512z" />
<glyph unicode="&#xe61a;" d="M472.28 92.536l-69.936 69.944c-13.928 13.872-37 13.448-51.416-0.968l-35.232-35.232c-2.224 1.232-4.528 2.512-6.952 3.872-22.248 12.328-52.704 29.224-84.752 61.296-32.136 32.136-49.056 62.64-61.416 84.904-1.312 2.36-2.56 4.632-3.792 6.792l35.272 35.256c14.44 14.44 14.84 37.504 0.936 51.416l-69.936 69.952c-13.896 13.896-36.976 13.472-51.416-0.968l-19.712-19.824 0.544-0.536c-6.608-8.432-12.136-18.16-16.24-28.648-3.792-9.984-6.152-19.512-7.232-29.056-9.232-76.56 25.752-146.528 120.696-241.48 131.24-131.232 237.008-121.32 241.568-120.832 9.944 1.184 19.464 3.56 29.144 7.32 10.4 4.064 20.12 9.576 28.544 16.168l0.432-0.376 19.968 19.552c14.408 14.44 14.824 37.504 0.928 51.448zM455.816 56.64l-8.8-8.784-3.504-3.368c-5.52-5.336-15.072-12.832-29.024-18.288-7.92-3.048-15.728-5.008-23.672-5.952-1-0.096-100.48-8.584-223.6 114.528-104.688 104.68-121.464 165-114.432 223.424 0.88 7.744 2.824 15.536 5.928 23.68 5.504 14.032 12.992 23.576 18.288 29.104l12.168 12.288c5.864 5.88 15.008 6.328 20.368 0.968l69.936-69.936c5.352-5.368 4.928-14.512-0.944-20.408l-47.232-47.184 4.36-7.336c2.424-4.088 4.984-8.672 7.72-13.648 12.992-23.432 30.768-55.504 65.096-89.8 34.24-34.256 66.264-52.016 89.624-64.976 5.048-2.792 9.656-5.36 13.792-7.824l7.352-4.36 47.2 47.216c5.888 5.864 15.064 6.296 20.424 0.952l69.904-69.92c5.344-5.36 4.92-14.504-0.952-20.376z" />
<glyph unicode="&#xe61b;" d="M297.752 409.16c-13.64 0-27.16-1.48-40.176-4.384l0.216-0.984c-13.976 3.36-28.512 5.368-43.504 5.368-102.104 0-185.168-83.064-185.168-185.168 0-102.080 83.064-185.144 185.168-185.144 14.288 0 28.144 1.792 41.504 4.84 13.664-3.176 27.768-4.84 41.968-4.84 102.072 0 185.144 83.064 185.144 185.144-0.016 102.096-83.080 185.168-185.152 185.168zM46.944 223.984c0 92.264 75.072 167.336 167.336 167.336s167.304-75.072 167.304-167.336c0-92.264-75.040-167.304-167.304-167.304s-167.336 75.040-167.336 167.304zM297.752 56.68c-1.424 0-2.816 0.184-4.192 0.24 62.488 29.784 105.864 93.344 105.864 167.064 0 73.752-43.416 137.344-105.896 167.088 1.416 0.032 2.808 0.248 4.224 0.248 92.256 0 167.304-75.072 167.304-167.336s-75.048-167.304-167.304-167.304zM223.136 236.976c-24.528 10.432-33.144 17.744-33.144 32.12 0 11.536 6.36 24.528 28.048 24.528 18.048 0 29.624-6.512 35.544-9.872l7.032 18.608c-8.456 4.784-19.992 9.32-36.656 9.84l0.040 27.408h-17.776v-28.2c-25.672-4.256-42.272-22-42.272-45.392-0.032-24.528 17.776-37.768 46.504-49.064 20.856-8.456 30.056-18.048 30.056-33.536 0-16.112-11.728-27.648-31.752-27.648-15.768 0-30.488 5.616-40.328 12.104l-6.76-18.856c9.872-7.032 26.504-12.128 42.856-12.432v-28.168h17.744l0.032 29.312c29.032 4.504 44.52 25.392 44.52 47.92 0.008 25.072-14.656 39.448-43.688 51.328z" />
<glyph unicode="&#xe61c;" d="M321.152 377.688c-10.224 0-20.368-1.152-30.2-3.104-9.96 2.024-20.28 3.104-30.816 3.104-11.32 0-22.536-1.232-33.344-3.64l0.176-0.848c-11.6 2.816-23.664 4.488-36.112 4.488-84.752 0-153.696-68.952-153.696-153.696 0-84.72 68.952-153.672 153.696-153.672 11.856 0 23.36 1.488 34.448 4.024 11.344-2.64 23.048-4.024 34.832-4.024 10.632 0 21.032 1.104 31.072 3.152 9.832-1.944 19.872-3.152 29.944-3.152 84.752 0 153.696 68.952 153.696 153.672-0.008 84.744-68.952 153.696-153.696 153.696zM51.96 223.992c0 76.576 62.288 138.896 138.896 138.896 76.584 0 138.872-62.32 138.872-138.896 0-76.584-62.288-138.872-138.872-138.872-76.608 0-138.896 62.288-138.896 138.872zM256.656 85.32c51.864 24.72 87.88 77.48 87.88 138.664 0 61.208-36.040 114-87.928 138.688 1.176 0.024 2.352 0.208 3.528 0.208 76.584 0 138.872-62.32 138.872-138.896 0-66.080-46.44-121.456-108.392-135.384-0.672 0.128-1.336 0.176-2 0.336l-0.2-0.92c-9.152-1.896-18.592-2.896-28.28-2.896-1.176 0-2.328 0.152-3.48 0.2zM326.008 85.376c51.824 24.712 87.808 77.48 87.808 138.616 0 61.16-35.984 113.92-87.808 138.64 74.328-2.584 134.032-63.696 134.032-138.64s-59.704-136.056-134.032-138.616zM190.112 234.768c-20.384 8.656-27.536 14.728-27.536 26.664 0 9.576 5.28 20.36 23.312 20.36 14.984 0 24.56-5.4 29.504-8.192l5.84 15.448c-7.016 3.968-16.624 7.736-30.424 8.168v22.744h-14.752v-23.408c-21.312-3.536-35.088-18.264-35.088-37.672 0-20.36 14.752-31.344 38.6-40.72 17.32-7.016 24.952-14.984 24.952-27.84 0.024-13.368-9.736-22.944-26.336-22.944-13.112 0-25.304 4.664-33.472 10.040l-5.608-15.648c8.168-5.84 22-10.064 35.552-10.32v-23.384h14.752v24.328c24.128 3.744 36.984 21.080 36.984 39.776-0.016 20.808-12.176 32.744-36.28 42.6z" />
<glyph unicode="&#xe61d;" d="M463.496 383.776l-294.456-294.432-120.544 120.536-12.552-12.576 133.096-133.080 307.016 306.992z" />
<glyph unicode="&#xe61e;" d="M522.224 199.024c0 0-73.472 74.912-174.72 74.912-98.928 0-196.72-74.912-196.72-74.912l-54.928 22.928v-67.264c8.656-2.944 14.992-10.912 14.992-20.56 0-9.744-6.464-17.728-15.248-20.608l16.24-45.296h-47.936l16.384 45.68c-7.872 3.344-13.376 11.12-13.376 20.224 0 8.912 5.344 16.496 12.976 19.952v74.544l-79.888 33.312 351.504 157.776 322.496-159.76-151.776-60.928zM343.504 235.984c101.856 0 151.776-53.92 151.776-53.92v-111.84c0 0-51.92-41.936-159.76-41.936s-143.792 41.936-143.792 41.936v111.84c0 0 49.92 53.92 151.776 53.92zM341.504 52.256c70.592 0 127.824 14.32 127.824 31.952s-57.232 31.952-127.824 31.952-127.808-14.32-127.808-31.952 57.216-31.952 127.808-31.952z" horiz-adv-x="674" />
<glyph unicode="&#xe61f;" d="M236.6 162.432c17.528 0 32.176 2.88 46.568 10.464l-4.184 11.256c-10.728-6-24.608-9.152-39.52-9.152-38.728 0-67.248 26.944-67.248 70.664 0 53.112 35.864 86.896 78.512 86.896 40.56 0 63.328-27.216 63.328-65.168 0-30.368-14.888-48.16-28.256-47.904-8.616 0.264-11.776 9.416-7.84 29.328l8.904 47.336c-6.808 3.152-16.76 5.504-28.016 5.504-36.376 0-62.024-29.576-62.024-62.024 0-20.664 13.080-32.96 28.264-32.96 15.696 0 27.728 7.576 36.904 23.032h1.048c-0.8-15.984 8.888-23.032 19.376-23.032 24.6 0 46.568 23.032 46.568 62.264 0 43.712-30.608 75.656-76.168 75.656-58.104 0-95.512-46.592-95.512-100.504-0.016-50.256 36.36-81.656 79.296-81.656zM263.288 256.392c-2.88-16.224-16.76-35.6-31.944-35.6-11.504 0-17.272 8.376-17.272 19.88 0 25.4 18.576 47.128 41.608 47.128 6.032 0 10.488-1.040 13.096-1.84l-5.488-29.568zM443.44 407.552c0 7.872-6.416 14.288-14.28 14.288h-29.208c-0.528 0-1.088-0.040-1.648-0.12v27.88h-329.384v-381.64c-0.36-3.536-3.072-35.32 14.528-54.952 8.664-9.688 20.656-14.6 35.6-14.6h264.96c7.872 0 14.288 6.416 14.288 14.288v31.528l-280.6 0.216v-12.64h267.96v-19.112c0-0.928-0.72-1.648-1.648-1.648h-264.96c-11.192 0-20 3.496-26.176 10.36-12.136 13.512-11.864 36.736-11.456 43.792h316.88v35.504c0.56-0.080 1.12-0.128 1.648-0.128h29.208c7.864 0 14.28 6.416 14.28 14.288v84.4c0 3.672-1.424 7.168-3.92 9.808 2.504 2.616 3.92 6.136 3.92 9.784v84.4c0 3.752-1.472 7.312-4.064 9.952 2.592 2.64 4.064 6.2 4.064 9.976v84.376zM385.656 77.832h-303.976l-0.12 359.12h304.096v-359.12zM430.8 114.864c0-0.896-0.728-1.648-1.64-1.648h-29.208c-0.912 0-1.648 0.752-1.648 1.648v84.4c0 0.912 0.736 1.64 1.648 1.64h29.208c0.912 0 1.64-0.728 1.64-1.64v-84.4zM430.8 218.848c0-0.888-0.728-1.648-1.64-1.648h-29.208c-0.912 0-1.648 0.76-1.648 1.648v84.4c0 0.912 0.736 1.648 1.648 1.648h29.208c0.912 0 1.64-0.728 1.64-1.648v-84.4zM430.8 323.176c0-0.92-0.728-1.664-1.64-1.664h-29.208c-0.912 0-1.648 0.752-1.648 1.664v84.376c0 0.92 0.736 1.648 1.648 1.648h29.208c0.912 0 1.64-0.72 1.64-1.648v-84.376z" />
<glyph unicode="&#xe620;" d="M336.792 352.032c0 39.016-31.72 70.76-70.712 70.76-39.008 0-70.752-31.744-70.752-70.76 0-38.992 31.736-70.728 70.752-70.728 38.992 0 70.712 31.744 70.712 70.728zM266.080 292.592c-32.808 0-59.464 26.664-59.464 59.448 0 32.792 26.656 59.472 59.464 59.472 32.792 0 59.456-26.68 59.456-59.472-0.008-32.792-26.672-59.448-59.456-59.448zM270.264 358.992c-9.312 3.968-10.824 6.104-10.824 9.704 0 3.064 1.384 6.712 8.048 6.712 6.136 0 10.048-2.24 11.944-3.336l2.384-1.36 4.28 11.336-1.752 1c-3.776 2.12-7.816 3.36-12.336 3.8v10.24h-11.256v-10.824c-9.56-2.336-15.616-9.488-15.616-18.704-0.024-11.408 9.416-16.664 18.632-20.288 8-3.232 9.656-6.424 9.656-10.216 0-2.144-0.712-3.992-2.072-5.352-4.064-4.088-14.4-2.728-20.92 1.584l-2.504 1.632-4.112-11.456 1.456-1.024c3.672-2.624 9.192-4.424 14.84-4.912v-10.504h11.256v11.232c9.896 2.312 16.448 10 16.448 19.632 0.016 9.776-5.248 16.096-17.552 21.104zM358.048 315.48c-30.040 0-54.504-24.448-54.504-54.464 0-30.040 24.472-54.456 54.504-54.456s54.464 24.416 54.464 54.456c-0.008 30.016-24.424 54.464-54.464 54.464zM358.048 216.24c-24.712 0-44.808 20.088-44.808 44.776s20.096 44.776 44.808 44.776c24.688 0 44.76-20.088 44.76-44.776s-20.072-44.776-44.76-44.776zM361.432 266.808c-6.792 2.896-7.88 4.4-7.88 6.904 0 3.040 1.872 4.576 5.544 4.576 4.52 0 7.344-1.608 8.848-2.48l2.384-1.336 3.624 9.656-1.728 1c-2.776 1.576-5.768 2.552-9.096 2.92v7.872h-9.736v-8.416c-7.168-1.92-11.864-7.616-11.864-14.664 0-9.024 7.368-13.16 14.544-16 5.832-2.336 7.008-4.52 6.976-7.272 0-1.456-0.464-2.72-1.36-3.648-2.888-2.864-10.464-1.896-15.272 1.264l-2.488 1.632-3.544-9.776 1.432-1.016c2.776-1.976 6.888-3.36 11.12-3.824v-8.072h9.656l0.048 8.68c7.568 1.944 12.528 7.928 12.528 15.416 0 9.776-7.368 14.008-13.736 16.584zM32.288 61.792h70.536v139.88h-70.536v-139.88zM46.344 187.608h42.416v-111.76h-42.416v111.76zM477.792 115.248c-2.552 5.4-27.168 54.896-56.088 49.744-7.984-1.464-14.936-8.76-24.568-18.848-16.392-17.24-38.864-40.88-74.72-40.88-21.864 0-46.552 8.872-73.624 26.44l56.136 0.024c0 0 0.56-0.048 1.488-0.048 14.72 0 24.224 8 24.224 20.408v23.272l-0.144 1.392c-1.632 8.24-9.024 23.816-25.104 23.816h-189.968v-134.656l4.912-1.552c5.104-1.576 125.12-39.064 169-39.064v0c0 0 1.264-0.072 3.624-0.072 18.896 0 116.528 3.984 183.808 82.48l2.944 3.456-1.92 4.088zM292.96 39.264c-1.872 0-2.92 0.048-3.312 0.048-37.184 0-136.84 29.8-160.168 36.92v110.264h175.904c7.512 0 10.528-9.528 11.184-11.968v-22.448c0-5.256-5.52-6.352-10.168-6.352l-100.64 0.024 16.64-12.616c36.632-27.832 70.288-41.936 100.016-41.936 41.856 0 67.792 27.216 84.912 45.24 6.272 6.616 13.4 14.088 16.896 14.744 13.648 2.232 29.992-20.84 38.824-37.832-63.168-70.464-152.576-74.088-170.088-74.088z" />
<glyph unicode="&#xe621;" d="M431.424 413.712v36.184h-16.392v-36.176h-59v36.176h-16.384v-36.176h-65.832v36.176h-16.384v-36.176h-68.328v36.176h-16.384v-36.176h-65.544v36.176h-16.384v-36.176h-58.384v-415.608h447.184v415.6h-48.168zM464.728 12.976h-417.432v293.432h417.432v-293.432zM464.728 321.256h-417.432v77.592h43.488v-37.696h16.384v37.696h65.544v-37.696h16.384v37.696h68.328v-37.696h16.384v37.696h65.832v-37.696h16.384v37.696h59v-37.696h16.392v37.696h33.304v-77.592zM371.744 219.392l-10.936 12.184-121.032-108.544-71.256 72.296-11.656-11.52 82.192-83.4z" />
<glyph unicode="&#xe622;" d="M367.497 77.313c-9.476 1.494-9.692 27.327-9.692 27.327s27.844 27.328 33.912 64.076c16.326 0 26.407 39.069 10.082 52.814 0.681 14.47 20.984 113.588-81.799 113.588s-82.479-99.118-81.799-113.588c-16.327-13.745-6.244-52.814 10.081-52.814 6.067-36.748 33.913-64.076 33.913-64.076s-0.216-25.833-9.692-27.327c-30.524-4.816-144.503-54.658-144.503-109.313h384c0 54.655-113.979 104.497-144.503 109.313zM172.027 68.595c22.047 13.575 48.813 26.154 70.769 33.712-7.876 11.216-16.647 26.468-22.165 44.531-7.703 6.283-13.972 15.266-17.999 26.301-4.033 11.052-5.561 23.426-4.304 34.842 0.902 8.196 3.239 15.833 6.825 22.544-2.175 23.293-3.707 69.017 26.224 102.366 11.607 12.933 26.278 22.23 43.85 27.843-3.137 32.38-19.58 70.385-83.227 70.385-102.782 0-82.479-99.118-81.799-113.588-16.327-13.745-6.244-52.814 10.081-52.814 6.067-36.748 33.913-64.076 33.913-64.076s-0.216-25.833-9.692-27.327c-30.524-4.817-144.503-54.659-144.503-109.314h164.798c2.355 1.537 4.753 3.070 7.229 4.595z" />
<glyph unicode="&#xe623;" d="M160 384c0 53.019 42.981 96 96 96s96-42.981 96-96c0-53.019-42.981-96-96-96s-96 42.981-96 96zM384.039 256h-17.712l-99.552-202.122 37.225 186.122-48 48-48-48 37.225-186.122-99.551 202.122h-17.712c-63.962 0-63.962-42.993-63.962-96v-160h384v160c0 53.007 0 96-63.961 96z" />
<glyph unicode="&#xe624;" d="M64 32h448v-64h-512v512h64zM144 64c-26.51 0-48 21.49-48 48s21.49 48 48 48c1.414 0 2.811-0.074 4.194-0.193l51.596 85.993c-4.92 7.535-7.79 16.531-7.79 26.201 0 26.51 21.49 48 48 48s48-21.49 48-48c0-9.671-2.87-18.666-7.79-26.201l51.596-85.993c1.383 0.119 2.78 0.193 4.194 0.193 1.068 0 2.124-0.047 3.175-0.115l85.178 149.061c-5.268 7.704-8.353 17.018-8.353 27.055 0 26.51 21.49 48 48 48s48-21.49 48-48c0-26.51-21.49-48-48-48-1.070 0-2.124 0.047-3.175 0.116l-85.178-149.062c5.268-7.703 8.353-17.018 8.353-27.055 0-26.51-21.49-48-48-48s-48 21.49-48 48c0 9.67 2.87 18.666 7.789 26.201l-51.595 85.992c-1.383-0.119-2.78-0.193-4.194-0.193s-2.811 0.073-4.194 0.193l-51.596-85.993c4.92-7.534 7.79-16.53 7.79-26.2 0-26.51-21.49-48-48-48z" />
<glyph unicode="&#xe625;" d="M0 64h512v-64h-512zM64 192h64v-96h-64zM160 320h64v-224h-64zM256 224h64v-128h-64zM352 416h64v-320h-64z" />
<glyph unicode="&#xe626;" d="M488 96h-8v104c0 30.878-25.121 56-56 56h-136v64h8c13.2 0 24 10.8 24 24v80c0 13.2-10.8 24-24 24h-80c-13.2 0-24-10.8-24-24v-80c0-13.2 10.8-24 24-24h8v-64h-136c-30.878 0-56-25.122-56-56v-104h-8c-13.2 0-24-10.8-24-24v-80c0-13.2 10.8-24 24-24h80c13.2 0 24 10.8 24 24v80c0 13.2-10.8 24-24 24h-8v96h128v-96h-8c-13.2 0-24-10.8-24-24v-80c0-13.2 10.8-24 24-24h80c13.2 0 24 10.8 24 24v80c0 13.2-10.8 24-24 24h-8v96h128v-96h-8c-13.2 0-24-10.8-24-24v-80c0-13.2 10.8-24 24-24h80c13.2 0 24 10.8 24 24v80c0 13.2-10.8 24-24 24zM96 0h-64v64h64v-64zM288 0h-64v64h64v-64zM224 352v64h64v-64h-64zM480 0h-64v64h64v-64z" />
<glyph unicode="&#xe627;" d="M471.624 73.104l-191.328 331.368c-4.976 8.696-14.312 14.096-24.344 14.096-10.008 0-19.336-5.392-24.352-14.064l-192.184-332.904c-5.008-8.664-5.008-19.424 0-28.088 5.008-8.688 14.336-14.088 24.336-14.088h384.504c15.488 0 28.088 12.616 28.088 28.12 0 5.784-1.712 11.352-4.72 15.56zM448.256 45.72h-384.496c-4.208 0-8.144 2.256-10.248 5.912-2.112 3.656-2.12 8.192 0 11.848l192.184 332.896c2.104 3.64 6.032 5.912 10.256 5.912 4.208 0 8.168-2.272 10.264-5.912l191.712-332.032c1.4-2 2.16-4.344 2.16-6.808 0-6.512-5.32-11.816-11.832-11.816zM264.792 142.704l4.432 151.296h-33.032l4.408-151.296zM252.704 121.024c-11.504 0-19.848-8.728-19.848-20.744 0-12.048 8.344-20.776 19.848-20.776 11.688 0 19.864 8.528 19.864 20.776 0 12.216-8.168 20.744-19.864 20.744z" />
<glyph unicode="&#xe628;" d="M488.062 435.516h-79.797v30.546c0 5.031-4.094 9.125-9.125 9.125-5.016 0-9.109-4.094-9.109-9.125v-30.547h-124.922v30.547c0 5.031-4.094 9.125-9.109 9.125s-9.109-4.094-9.109-9.125v-30.547h-124.922v35.376c0 5.016-4.094 9.109-9.109 9.109-5.031 0-9.125-4.094-9.125-9.109v-35.375h-79.797c-13.188 0-23.938-10.75-23.938-23.954v-419.625c0-13.187 10.75-23.937 23.938-23.937h464.125c13.187 0 23.937 10.75 23.937 23.938v419.624c0 13.204-10.75 23.954-23.938 23.954zM493.781-13.781h-475.562v327.265h475.562v-327.265zM493.781 331.688h-475.562v85.593h85.516v-30.562c0-5.031 4.094-9.109 9.125-9.109 5.016 0 9.109 4.078 9.109 9.109v30.562h124.922v-35.359c0-5.031 4.094-9.125 9.109-9.125s9.109 4.094 9.109 9.125v35.359h124.922v-35.359c0-5.031 4.094-9.125 9.109-9.125 5.031 0 9.125 4.094 9.125 9.125v35.359h85.516v-85.593zM159.594 61.312h59.328c5.016 0 9.109 4.094 9.109 9.125s-4.094 9.125-9.109 9.125h-20.562v168.844c0 5.016-4.078 9.109-9.094 9.109-2.453 0-4.734-0.953-6.453-2.672l-20.969-20.953c-3.547-3.562-3.547-9.344 0.016-12.906 2.625-2.625 6.844-3.312 10.219-1.828l8.078 3.688v-143.281h-20.562c-5.016 0-9.109-4.094-9.109-9.125s4.092-9.126 9.108-9.126zM293.078 61.312h59.328c5.016 0 9.094 4.094 9.094 9.125s-4.078 9.125-9.094 9.125h-20.562v168.844c0 5.016-4.094 9.109-9.109 9.109-2.438 0-4.734-0.953-6.469-2.672l-20.953-20.953c-3.531-3.547-3.531-9.344 0.016-12.906 2.625-2.609 6.875-3.359 10.188-1.828l8.109 3.688v-143.281h-20.547c-5.016 0-9.109-4.094-9.109-9.125s4.092-9.126 9.108-9.126z" />
<glyph unicode="&#xe62a;" d="M482.328 228.752c-4.12 4.8-102.464 117.912-226.336 117.912-123.864 0-222.192-113.112-226.32-117.912l-4.072-4.752 4.072-4.752c4.12-4.832 102.456-117.912 226.32-117.912 123.88 0 222.192 113.088 226.336 117.912l4.072 4.752-4.072 4.752zM255.992 115.944c-103.104 0-190.776 86.592-210.896 108.056 20.128 21.44 107.8 108.048 210.896 108.048s190.768-86.608 210.912-108.048c-20.12-21.464-107.696-108.056-210.912-108.056zM255.992 269.552c-25.128 0-45.56-20.424-45.56-45.552 0-25.136 20.432-45.552 45.56-45.552s45.584 20.424 45.584 45.552c-0.008 25.128-20.456 45.552-45.584 45.552zM255.992 193.032c-17.064 0-30.944 13.904-30.944 30.968s13.88 30.968 30.944 30.968 30.968-13.904 30.968-30.968c-0.008-17.064-13.904-30.968-30.968-30.968z" />
<glyph unicode="&#xe62b;" d="M512 372.375c0 13.219-10.75 23.969-23.938 23.969h-464.14c-13.188 0-23.922-10.75-23.922-23.969v-296.75c0-13.219 10.734-23.969 23.922-23.969h464.141c13.188 0 23.938 10.75 23.938 23.969v296.75zM480.688 378.094l-224.688-186.766-224.703 186.766h449.391zM493.781 69.906h-475.578v295.375l163.141-135.578c40.328-33.531 68.172-56.672 68.844-57.234 3.328-2.75 8.344-2.719 11.594-0.016l232 192.828v-295.375z" />
<glyph unicode="&#xe62c;" d="M511.845 80.932c0 13.194-10.695 23.95-23.926 23.95h-35.359v104.294c0 13.218-10.719 23.926-23.926 23.926h-163.556v110.028h35.384c13.205 0 23.938 10.755 23.938 23.95v88.958c-0.001 13.219-10.733 23.962-23.938 23.962h-88.947c-13.182 0-23.914-10.743-23.914-23.962v-88.958c0-13.194 10.732-23.95 23.914-23.95h35.396v-110.029h-163.557c-13.207 0-23.914-10.708-23.914-23.926v-104.294h-35.359c-13.23 0-23.926-10.756-23.926-23.95v-88.97c0-13.218 10.696-23.961 23.926-23.961h88.91c13.194 0 23.926 10.743 23.926 23.962v88.97c0 13.194-10.731 23.95-23.926 23.95h-35.383v110.016h169.302v-110.017h-35.396c-13.182 0-23.914-10.756-23.914-23.95v-88.97c0-13.219 10.732-23.962 23.914-23.962h88.947c13.205 0 23.938 10.743 23.938 23.962v88.97c0 13.194-10.732 23.95-23.938 23.95h-35.384v110.017h169.29v-110.017h-35.395c-13.195 0-23.891-10.756-23.891-23.95v-88.97c0-13.219 10.695-23.962 23.891-23.962h88.945c13.23 0 23.926 10.743 23.926 23.962v88.971zM118.726 86.631v-100.403h-100.404v100.403h100.404zM306.185 86.631v-100.403h-100.381v100.403h100.381zM205.804 361.369v100.404h100.381v-100.404h-100.381zM493.678-13.772h-100.415v100.403h100.415v-100.403z" />
<glyph unicode="&#xe62d;" d="M464.836 166.203l1.156 4.203h45.875v107.188h-45.875l-1.156 4.203c-4.711 17.062-11.547 33.562-20.336 49.062l-2.141 3.797 32.445 32.453-75.766 75.781-32.438-32.453-3.797 2.156c-15.445 8.781-31.945 15.625-49.039 20.344l-4.203 1.156v45.907h-107.123v-45.906l-4.203-1.172c-17.078-4.688-33.578-11.547-49.039-20.328l-3.797-2.156-32.453 32.453-75.75-75.781 32.453-32.484-2.156-3.781c-8.758-15.422-15.594-31.922-20.328-49.047l-1.156-4.203h-45.876v-107.188h45.875l1.156-4.203c4.727-17.125 11.562-33.641 20.328-49.062l2.156-3.797-32.453-32.469 75.75-75.781 32.453 32.438 3.797-2.141c15.484-8.781 31.977-15.625 49.039-20.328l4.203-1.156v-45.908h107.125v45.906l4.203 1.156c17.070 4.703 33.578 11.562 49.039 20.328l3.797 2.141 32.438-32.438 75.766 75.781-32.453 32.469 2.156 3.797c8.781 15.485 15.617 31.985 20.328 49.063zM449.070 80.875l-50.031-50.031-29.391 29.391-15.836-9.016c-14.086-8-29.18-14.281-44.883-18.609l-17.562-4.859v-41.531h-70.734v41.53l-17.578 4.859c-15.688 4.328-30.781 10.609-44.883 18.609l-15.836 9.016-29.391-29.391-50.008 50.031 29.375 29.391-8.992 15.859c-8.039 14.125-14.297 29.25-18.609 44.906l-4.852 17.578h-41.531v70.766h41.531l4.852 17.562c4.297 15.609 10.555 30.719 18.602 44.938l9 15.844-29.375 29.391 50.008 50.031 29.391-29.375 15.836 8.984c14.102 8.016 29.195 14.281 44.883 18.625l17.578 4.844v41.548h70.734v-41.547l17.562-4.844c15.703-4.344 30.797-10.609 44.891-18.625l15.828-9 29.391 29.391 50.031-50.031-29.383-29.391 8.992-15.844c8.055-14.219 14.312-29.328 18.609-44.938l4.852-17.562h41.523v-70.766h-41.523l-4.852-17.578c-4.297-15.594-10.555-30.719-18.602-44.906l-9-15.859 29.383-29.391zM255.992 322.094c-54.055 0-98.031-44.016-98.031-98.094s43.977-98.094 98.031-98.094 98.031 44.016 98.031 98.094-43.976 98.094-98.031 98.094zM312.461 167.531c-15.078-15.094-35.133-23.406-56.469-23.406-21.328 0-41.375 8.312-56.453 23.406-15.078 15.078-23.383 35.125-23.383 56.469 0 21.328 8.305 41.375 23.383 56.469 15.102 15.094 35.141 23.406 56.453 23.406 21.32 0 41.367-8.312 56.469-23.406 15.078-15.094 23.383-35.141 23.383-56.469 0-21.344-8.305-41.391-23.383-56.469z" />
<glyph unicode="&#xe62e;" d="M15.634-29.424l240.361 240.502 240.361-240.502c3.453-3.438 9.453-3.438 12.859 0 1.75 1.75 2.703 4.031 2.703 6.453 0 2.438-0.953 4.719-2.688 6.438l-240.376 240.502 4.062 4.047 236.315 236.423c3.531 3.562 3.531 9.344-0.016 12.906-3.406 3.469-9.422 3.469-12.844 0l-240.376-240.501-240.377 240.502c-1.734 1.719-4.016 2.656-6.438 2.656-2.453 0-4.734-0.938-6.453-2.656-3.531-3.562-3.531-9.344 0.016-12.906l240.361-240.471-4.062-4.047-236.314-236.455c-3.531-3.562-3.531-9.344 0.016-12.891 3.405-3.406 9.437-3.437 12.89 0z" />
</font>
</defs>
</svg>
