<?xml version="1.0" standalone="no"?>
<!DOCTYPE svg PUBLIC "-//W3C//DTD SVG 1.1//EN" "http://www.w3.org/Graphics/SVG/1.1/DTD/svg11.dtd" >
<svg xmlns="http://www.w3.org/2000/svg">
<metadata></metadata>
<defs>
<font id="asenine_thinregular" horiz-adv-x="684" >
<font-face units-per-em="2048" ascent="1638" descent="-410" />
<missing-glyph horiz-adv-x="468" />
<glyph horiz-adv-x="0" />
<glyph horiz-adv-x="682" />
<glyph horiz-adv-x="410" d="M30 1195l134 -260h85l132 260h-64l-111 -198l-111 198h-65z" />
<glyph unicode="&#xd;" horiz-adv-x="1023" />
<glyph unicode=" "  horiz-adv-x="468" />
<glyph unicode="&#x09;" horiz-adv-x="468" />
<glyph unicode="&#xa0;" horiz-adv-x="468" />
<glyph unicode="!" horiz-adv-x="157" d="M30 57q0 63 49 62q49 1 49 -62q0 -65 -49 -65t-49 65zM52 239v976h54v-976h-54z" />
<glyph unicode="&#x22;" horiz-adv-x="297" d="M30 1196h68l-6 -278h-55zM200 1196h69l-7 -278h-55z" />
<glyph unicode="#" horiz-adv-x="750" d="M30 323l7 68h184l23 236h-184l7 66h184l24 240h50l-23 -240h182l23 240h53l-24 -240h185l-7 -66h-184l-24 -236h185l-7 -68h-184l-24 -240h-53l24 240h-182l-23 -240h-51l23 240h-184zM272 391h182l23 236h-182z" />
<glyph unicode="$" horiz-adv-x="637" d="M30 50v72q108 -52 178 -50v564q-74 43 -106 77q-72 78 -72 213q0 209 178 255v136h57v-125q27 3 56 3h34v122h58v-122q48 -9 54 -11q45 -13 85 -39v-66q-68 43 -139 51v-519q82 -45 111 -76q83 -93 83 -227q0 -244 -194 -296v-145h-58v135q-20 -2 -41 -2h-49v-133h-57 v133q-103 3 -178 50zM88 931q0 -103 57 -163q21 -21 63 -47v395q-120 -38 -120 -185zM265 72q50 0 90 7v477q-7 4 -26 15l-64 33v-532zM265 688l10 -5l80 -41v488h-50q-22 0 -40 -2v-440zM413 93q132 45 132 209q0 108 -70 176q-20 19 -62 45v-430z" />
<glyph unicode="%" horiz-adv-x="805" d="M30 973q0 103 47 174q54 83 152 83q97 0 151 -83q46 -71 46 -174t-46 -174q-53 -83 -151 -82q-98 0 -152 82q-47 71 -47 174zM58 -21l609 1224h54l-607 -1224h-56zM84 973q0 -75 34 -128q39 -62 111 -62q70 0 110 62q34 54 34 128q0 75 -33 127q-39 62 -111 62t-111 -61 q-33 -53 -34 -128zM380 253q0 104 45 175q53 83 152 83q98 0 152 -84q47 -71 47 -174t-47 -174q-54 -83 -152 -82q-98 0 -152 81q-46 70 -45 175zM432 253q0 -75 34 -128q40 -62 111 -62q72 0 111 62q34 53 34 128t-34 128q-40 62 -111 62t-111 -62q-34 -53 -34 -128z" />
<glyph unicode="&#x26;" horiz-adv-x="675" d="M30 334q0 140 88 238q43 47 96 72q-37 22 -66 55q-76 88 -76 214q0 125 69 211q74 93 196 92q123 0 197 -91q68 -84 67 -212q0 -127 -75 -214q-29 -33 -63 -54q-39 -33 -123 -34q-117 0 -185 -81q-63 -76 -62 -195q0 -119 62 -196q68 -82 185 -81q78 0 136 44l40 38 q68 79 68 195l63 -1q0 -141 -89 -240l1 -1l-317 -297q59 -59 118 -60q41 0 143 64q78 49 127 49l-1 -63q-35 0 -119 -49l-11 -6l-6 -4q-86 -56 -133 -56q-86 0 -196 135l37 36l165 156q-13 -2 -26 -1q-123 0 -212 87q-98 97 -98 250zM129 914q0 -103 52 -170q57 -74 156 -74 q95 0 154 77q53 69 53 167q0 103 -51 170q-57 75 -156 76q-98 0 -156 -76q-52 -68 -52 -170z" />
<glyph unicode="'" horiz-adv-x="127" d="M30 1196h68l-6 -278h-55z" />
<glyph unicode="(" horiz-adv-x="255" d="M30 615q0 410 172 773l23 -54q-152 -343 -152 -718q0 -406 152 -702l-20 -60q-175 320 -175 761z" />
<glyph unicode=")" horiz-adv-x="255" d="M30 -86q153 296 153 702q0 375 -153 718l24 54q171 -363 171 -773q0 -440 -174 -761z" />
<glyph unicode="*" horiz-adv-x="521" d="M30 890v54h204v3q-6 61 -40 105q-45 58 -116 58l1 49q91 0 148 -70q18 -22 31 -50q12 26 31 50q57 70 147 70l1 -49q-71 0 -116 -58q-34 -44 -40 -105v-3h211v-54h-214l3 4v-1q18 -159 159 -160l-4 -53q-91 0 -147 70q-18 23 -31 50q-12 -26 -32 -50q-56 -70 -147 -70 l-4 53q67 0 110 46q40 43 49 111h-204z" />
<glyph unicode="+" horiz-adv-x="636" d="M30 475v68h263v350h52v-350h262v-68h-262v-350h-52v350h-263z" />
<glyph unicode="," horiz-adv-x="166" d="M30 -140l33 148q-28 14 -29 59q0 63 54 62h1v1v-1q48 0 48 -62q0 -12 -2 -22l1 -1l-47 -184h-59z" />
<glyph unicode="-" horiz-adv-x="479" d="M30 380v68h420v-68h-420z" />
<glyph unicode="." horiz-adv-x="157" d="M30 57q0 63 49 62q49 1 49 -62q0 -65 -49 -65t-49 65z" />
<glyph unicode="/" horiz-adv-x="465" d="M30 2l349 1213h57l-348 -1213h-58z" />
<glyph unicode="0" horiz-adv-x="694" d="M30 598q0 295 60 438q74 179 262 179q185 0 258 -180q56 -139 56 -437q0 -289 -59 -434q-75 -184 -255 -185q-187 0 -262 180q-60 143 -60 439zM91 600q0 -273 41 -388q58 -161 220 -161q161 0 216 162q37 111 37 387q0 277 -37 386q-55 160 -216 160q-164 0 -221 -159 q-40 -113 -40 -387z" />
<glyph unicode="1" horiz-adv-x="254" d="M30 978v75l194 142v-1195h-52v1076z" />
<glyph unicode="2" horiz-adv-x="592" d="M30 882q10 138 68 226q72 107 200 107q134 0 205 -110q60 -93 60 -236q0 -127 -58 -224q-68 -116 -187 -116h-4q-93 0 -150 -71q-49 -62 -60 -159v-158q0 -63 52 -73h380v-68h-373q-115 0 -115 140v112q0 154 73 250q55 73 136 90l4 1h3q118 15 170 70q71 76 71 208 q0 113 -47 188q-55 88 -162 87q-189 0 -212 -264h-54z" />
<glyph unicode="3" horiz-adv-x="590" d="M30 96l40 44q73 -93 179 -93q123 0 192 99q61 87 61 215q0 114 -49 197q-58 96 -162 114q-20 -1 -122 0v60h120q173 29 173 209q0 96 -58.5 153.5t-153.5 57.5q-90 0 -154 -66l-41 44q83 83 195 82q116 0 193 -77.5t77 -194.5q0 -164 -136 -238q178 -95 177 -342 q0 -152 -78 -259q-87 -118 -234 -118q-127 0 -219 113z" />
<glyph unicode="4" horiz-adv-x="698" d="M30 408q0 38 23 78l418 729h66v-814h132v-62h-132v-339h-58v339h-362q-87 0 -87 69zM95 424q0 -23 38 -23h346v713l-376 -659q-8 -13 -8 -31z" />
<glyph unicode="5" horiz-adv-x="608" d="M30 86l39 51q58 -70 164 -70h43q242 0 242 283q0 120 -52 196q-60 87 -174 86h-238v563h462v-64h-404v-434h171q148 0 226 -101q70 -91 70 -244q0 -150 -70 -245q-78 -107 -223 -107h-44q-132 0 -212 86z" />
<glyph unicode="6" horiz-adv-x="686" d="M30 420q0 75 17 141h-2l203 651h57l-137 -442q75 68 175 68q154 0 241 -138q73 -116 73 -280t-73 -282q-86 -138 -241 -137q-153 0 -240 138q-73 117 -73 281zM87 418q0 -138 57 -236q69 -118 199 -118q129 0 199 118q59 98 59 236t-59 236q-70 118 -199 118 q-128 0 -198 -118q-58 -98 -58 -236z" />
<glyph unicode="7" horiz-adv-x="694" d="M30 1131v64h549q86 -1 86 -80q0 -24 -13 -64l-358 -1051h-60l365 1069q6 19 6 40q0 23 -30 22h-545z" />
<glyph unicode="8" horiz-adv-x="675" d="M30 334q0 140 88 238q43 47 96 72q-37 22 -66 55q-76 88 -76 214q0 125 69 211q74 93 196 92q123 0 197 -91q68 -84 67 -212q0 -127 -75 -214q-29 -33 -63 -54q53 -25 97 -74q87 -96 87 -237q0 -138 -84 -236q-88 -102 -223 -101q-123 0 -212 87q-98 97 -98 250zM93 335 q0 -119 62 -196q68 -82 185 -81q113 0 181 82q63 78 63 195t-63 194q-68 83 -181 82q-117 0 -185 -81q-63 -76 -62 -195zM129 914q0 -103 52 -170q57 -74 156 -74q95 0 154 77q53 69 53 167q0 103 -51 170q-57 75 -156 76q-98 0 -156 -76q-52 -68 -52 -170zM325 611 q6 -1 12 0q7 -1 14 0v5h-26v-5zM325 666h25v4q-17 1 -25 0v-4z" />
<glyph unicode="9" horiz-adv-x="686" d="M30 793q0 163 74 281q87 138 241 138t240 -138q72 -117 72 -281q0 -75 -16 -140l1 -1l-202 -651h-58l138 442q-75 -68 -175 -68q-153 0 -241 138q-74 118 -74 280zM87 795q0 -139 57 -236q70 -118 201 -118q128 0 197 119q59 98 59 235q0 138 -58 236q-69 118 -198 118 q-130 0 -201 -118q-58 -97 -57 -236z" />
<glyph unicode=":" horiz-adv-x="158" d="M30 57q0 63 50 62q49 1 49 -62q0 -65 -49 -65q-50 0 -50 65zM30 595q0 65 50 65q49 0 49 -65q0 -63 -49 -64q-50 0 -50 64z" />
<glyph unicode=";" horiz-adv-x="166" d="M30 -140l33 148q-28 14 -29 59q0 63 54 62h1v1v-1q48 0 48 -62q0 -12 -2 -22l1 -1l-47 -184h-59zM34 595q0 65 50 65q49 0 49 -65q0 -63 -49 -64q-50 0 -50 64z" />
<glyph unicode="&#x3c;" horiz-adv-x="598" d="M30 484v51l538 403v-84l-452 -345l452 -345v-82z" />
<glyph unicode="=" horiz-adv-x="713" d="M30 323v68h654v-68h-654zM30 627v66h654v-66h-654z" />
<glyph unicode="&#x3e;" horiz-adv-x="598" d="M30 82v82l453 345l-453 345v84l538 -403v-51z" />
<glyph unicode="?" horiz-adv-x="573" d="M30 882q13 178 61 240q72 93 187 93q135 0 206 -110q59 -93 59 -236q0 -304 -263 -346v-299h-55v369h19q116 0 181 83q60 76 61 195q0 113 -47 188q-55 88 -162 87q-93 0 -149 -73q-23 -30 -32 -83q-4 -21 -12 -108h-54zM203 57q0 63 50 62q49 1 49 -62q0 -65 -49 -65 q-50 0 -50 65z" />
<glyph unicode="@" horiz-adv-x="1223" d="M30 435q0 275 128 478q187 297 510 297q214 0 356 -141q167 -166 166 -420q0 -289 -156 -450q-90 -93 -177 -93q-97 0 -97 119l11 4l-4 12q-71 -89 -171 -132q-59 -25 -121 -22q-138 6 -201 129q-39 77 -38 176q0 59 14 126q37 168 132 280q113 133 270 125 q164 -7 221 -189l35 164l54 -2l-139 -650q0 -45 6 -57q9 -19 44 -20q58 0 126 78q128 147 128 394q0 244 -143 382q-128 123 -322 123q-217 0 -366 -160q-199 -214 -199 -561q0 -267 126 -425q138 -173 396 -173q123 0 281 91q179 103 261 260l33 -33q-99 -184 -283 -289 q-153 -88 -290 -89q-241 0 -397 155q-194 190 -194 513zM294 402q0 -79 29 -139q49 -105 166 -110q62 -3 122 29q103 54 178 162l23 109q17 81 17 149q0 73 -20 130q-43 123 -168 128q-129 5 -225 -108q-80 -95 -109 -235q-13 -61 -13 -115z" />
<glyph unicode="A" horiz-adv-x="669" d="M30 0v772q0 176 63 294q80 148 242 149q159 0 240 -150q64 -119 64 -293v-772h-58v593h-493v-593h-58zM88 660h493v87q0 399 -245 399h-1q-248 0 -247 -399v-87z" />
<glyph unicode="B" horiz-adv-x="649" d="M30 1083h1q0 58 27 97q31 44 87 45h157h3q122 0 197 -97q69 -90 69 -219q0 -195 -159 -266q207 -65 207 -314q0 -143 -72 -231q-78 -95 -216 -95h-184q-40 0 -74 32q-42 40 -41 109zM88 595l1 -452q0 -63 52 -72h179q239 0 239 258q0 267 -259 267h-56v-1h-156zM88 662 h166h30q104 0 165.5 68t61.5 173q0 113 -59 183q-41 48 -75 62q-21 8 -77 8h-160q-53 -10 -52 -72v-422z" />
<glyph unicode="C" horiz-adv-x="849" d="M30 598q0 240 108 413q128 204 355 204q191 0 327 -181l-44 -45q-115 157 -283 157q-199 0 -309 -182q-93 -153 -93 -364q0 -214 92 -366q110 -183 310 -183q164 0 283 163l31 -69q-133 -166 -314 -166q-228 0 -355 204q-108 174 -108 415z" />
<glyph unicode="D" horiz-adv-x="743" d="M30 1083h1q0 58 27 97q31 44 87 45h157h2q193 0 306 -186q103 -172 103 -432q0 -238 -76 -396q-101 -208 -311 -208h-2h-177q-40 0 -74 32q-42 40 -41 109zM88 1084l1 -941q0 -63 52 -72l179 -1h2q184 0 269 189q62 139 62 350q0 231 -86 380q-96 167 -268 167h-159 q-53 -10 -52 -72z" />
<glyph unicode="E" horiz-adv-x="516" d="M30 142v911h1q0 58 27 97q31 44 87 45h342v-69h-347q-53 -10 -52 -72v-422h343v-67h-343v-424q0 -63 52 -73h347v-68h-342q-53 0 -86 46q-29 41 -29 96z" />
<glyph unicode="F" horiz-adv-x="516" d="M30 0v1053h1q0 58 27 97q31 44 87 45h342v-69h-347q-53 -10 -52 -72v-422h335v-67h-335v-565h-58z" />
<glyph unicode="G" horiz-adv-x="849" d="M30 598q0 240 108 413q128 204 355 204q191 0 327 -181l-44 -45q-115 157 -283 157q-199 0 -309 -182q-93 -153 -93 -364q0 -214 92 -366q110 -183 310 -183q153 0 267 142v277q0 63 -52 72h-347v69h341q55 0 87 -45q28 -40 29 -97v-486h-58v110q-117 -114 -267 -114 q-228 0 -355 204q-108 174 -108 415z" />
<glyph unicode="H" horiz-adv-x="669" d="M30 0v1195h58v-535h493v535h59v-1195h-59v593h-493v-593h-58z" />
<glyph unicode="I" horiz-adv-x="117" d="M30 0v1195h58v-1195h-58z" />
<glyph unicode="J" horiz-adv-x="495" d="M30 42l17 71l142 -45q26 -8 50 -8q87 0 131 99q38 82 38 203v833h57v-815q0 -150 -38 -250q-56 -143 -183 -143q-35 0 -75 13z" />
<glyph unicode="K" horiz-adv-x="671" d="M30 2v1194h58v-574l455 570h86l-396 -495l409 -696h-74l-378 644l-102 -127v-516h-58z" />
<glyph unicode="L" horiz-adv-x="516" d="M30 142v1053h58v-1054q0 -63 52 -73h347v-68h-342q-55 0 -87 44q-28 40 -28 98z" />
<glyph unicode="M" horiz-adv-x="850" d="M30 1110q0 94 72 95q55 0 73 -80l234 -1024q7 -28 16 -28t15 27l235 1025q18 80 75 80q69 0 70 -94v-1110h-58v1114q0 27 -15 26q-11 0 -17 -29l-229 -1006q-25 -108 -76 -108t-75 108l-230 1006q-7 29 -17 29q-14 0 -15 -26v-1118h-57z" />
<glyph unicode="N" d="M30 0v1097q0 108 74 108q50 0 80 -82l379 -1040q7 -18 17 -17q18 0 17 29v1100h58v-1092q0 -107 -73 -107h-1q-50 0 -80 82l-378 1041q-7 18 -18 17q-18 0 -17 -31v-1105h-58z" />
<glyph unicode="O" horiz-adv-x="932" d="M30 598q0 295 106 439q131 178 332 178q199 0 330 -181q105 -142 105 -436q0 -300 -122 -453q-133 -166 -313 -166q-201 0 -333 180q-105 143 -105 439zM91 600q0 -267 86 -388q114 -161 291 -161q175 0 289 162q86 121 86 387t-86 386q-114 160 -289 160 q-178 0 -291 -159q-86 -120 -86 -387z" />
<glyph unicode="P" horiz-adv-x="625" d="M30 0v1069q0 58 28 98q32 44 87 44l172 -1q138 -1 214 -116q65 -99 65 -245q0 -163 -94 -272q-80 -93 -228 -93h-186v-484h-58zM88 552h206q121 0 185 90q57 80 57 206q0 120 -49 199q-58 96 -170 96h-177q-53 -10 -52 -73v-518z" />
<glyph unicode="Q" horiz-adv-x="932" d="M30 598q0 295 106 439q131 178 332 178q199 0 330 -181q105 -142 105 -436q0 -299 -120 -450q-58 -73 -124 -115q-54 -148 -167 -204q8 -3 19 -10q111 -65 156 -65q83 0 199 132v-77q-108 -123 -199 -123q-47 0 -146 58q-1 1 -5 3l-13 8q-67 41 -119 48h-7v1h-5 q-83 0 -199 -133v76q106 123 199 123q6 0 12 -1q120 6 192 127q-53 -17 -108 -17q-201 0 -333 180q-105 143 -105 439zM91 600q0 -267 86 -388q114 -161 291 -161q79 0 148 35q17 60 17 129v8q0 136 -59 237q-71 121 -199 121l2 59q154 0 240 -139q73 -117 73 -280 q0 -46 -7 -88q40 35 73 81q87 122 87 386q0 266 -86 386q-114 160 -289 160q-178 0 -291 -159q-86 -120 -86 -387z" />
<glyph unicode="R" horiz-adv-x="625" d="M30 0v1069q0 58 28 98q32 44 87 44l172 -1q138 -1 214 -116q65 -99 65 -245q0 -164 -94 -272q-24 -28 -57 -50l151 -526h-59l-144 502q-53 -19 -119 -19h-186v-484h-58zM88 552h206q121 0 185 90q57 80 57 206q0 119 -49 199q-58 96 -170 96h-177q-53 -10 -52 -73v-518z " />
<glyph unicode="S" horiz-adv-x="637" d="M30 926q0 269 291 269h66q218 0 218 -308v-48h-51v48q0 243 -173 243h-76q-217 0 -217 -197q0 -105 57 -165q35 -37 130 -85l91 -46q122 -63 158 -102q83 -93 83 -227q0 -144 -73 -226q-75 -82 -210 -82h-10l-37 1v-1h-16q-218 0 -218 311v48h50v-48q0 -239 172 -239h21 q92 0 158 34q101 53 101 196q0 108 -70 176q-38 36 -146 93l-60 30q-124 65 -167 112q-72 78 -72 213z" />
<glyph unicode="T" horiz-adv-x="637" d="M30 1126v69h577v-69h-260v-1126h-58v1126h-259z" />
<glyph unicode="U" horiz-adv-x="669" d="M30 422v773h58v-744q0 -400 247 -400q246 0 246 400v744h58v-773q0 -174 -63 -294q-80 -149 -241 -149q-163 0 -242 149q-63 117 -63 294z" />
<glyph unicode="V" horiz-adv-x="760" d="M30 1195h58l270 -1109q8 -31 22 -31q15 0 23 30l271 1110h58l-270 -1104q-28 -110 -82 -110q-53 0 -80 110z" />
<glyph unicode="W" horiz-adv-x="1133" d="M30 1195h58l270 -1109q8 -31 22 -31q15 0 23 30l134 559l-134 551h57l270 -1109q8 -31 22 -31q16 0 23 30l271 1110h59l-271 -1104q-27 -110 -82 -110q-53 0 -80 110l-105 432l-105 -432q-28 -110 -82 -110q-53 0 -80 110z" />
<glyph unicode="X" horiz-adv-x="689" d="M30 1l286 596l-286 598h58l257 -538l257 538h59l-286 -598l286 -596h-60l-256 535l-257 -535h-58z" />
<glyph unicode="Y" horiz-adv-x="689" d="M30 1195h58l257 -538l257 538h59l-288 -602v-593h-54v591z" />
<glyph unicode="Z" horiz-adv-x="644" d="M30 85q0 42 30 98l482 891q8 14 8 28q0 26 -33 26h-479v67h482q86 0 86 -86q0 -43 -21 -82l-485 -897q-11 -20 -11 -34q0 -28 34 -28h491v-68h-492q-92 0 -92 85z" />
<glyph unicode="[" horiz-adv-x="240" d="M30 -8v1228q0 58 28 98q32 44 87 44h66v-60h-78q-52 -10 -51 -72v-1247q0 -63 51 -72h78v-60h-66q-55 0 -87 44q-28 40 -28 97z" />
<glyph unicode="\" horiz-adv-x="422" d="M30 1215h58l306 -1218h-58z" />
<glyph unicode="]" horiz-adv-x="240" d="M30 -89h78q52 11 51 72v1247q0 62 -51 72h-78v60h66q55 0 87 -44q28 -40 28 -98v-1228q0 -58 -28 -97q-32 -44 -87 -44h-66v60z" />
<glyph unicode="^" horiz-adv-x="410" d="M30 935l134 260h85l132 -260h-64l-111 198l-111 -198h-65z" />
<glyph unicode="_" horiz-adv-x="717" d="M30 -336h658v-67h-658v67z" />
<glyph unicode="`" horiz-adv-x="276" d="M30 1195l140 -293h77l-138 293h-79z" />
<glyph unicode="a" d="M30 403q0 169 70 283q83 136 242 136q165 0 259 -179v165h54v-808h-54v150q-51 -92 -141 -137q-55 -28 -115 -28q-157 0 -242 137q-73 115 -73 281zM87 405q0 -143 56 -238q68 -116 202 -116q62 0 115 34q92 60 141 168v109q0 153 -52 259q-68 137 -202 137h-2 q-132 0 -201 -116q-58 -96 -57 -237z" />
<glyph unicode="b" d="M30 1v1190h54v-548q94 179 260 179q159 0 242 -136q69 -114 69 -283q0 -166 -72 -281q-86 -137 -242 -137q-60 0 -115 28q-91 46 -141 137v-150h-54zM85 253q48 -108 141 -168q53 -34 115 -34q132 0 201 116q57 96 57 238q0 140 -58 237q-69 116 -198 116h-2 q-138 0 -205 -137q-51 -105 -51 -259v-109z" />
<glyph unicode="c" horiz-adv-x="594" d="M30 403q0 163 74 280q87 138 241 139q129 0 221 -121l-40 -44q-74 101 -179 101h-2q-130 0 -201 -117q-57 -95 -57 -231q0 -144 57 -241q70 -118 201 -118q107 0 181 103l38 -46q-92 -123 -219 -123q-153 0 -241 138q-74 118 -74 280z" />
<glyph unicode="d" d="M30 403q0 169 70 283q83 136 242 136q165 0 259 -179v548h54v-1191h-54v150q-50 -92 -141 -137q-55 -28 -115 -28q-157 0 -242 137q-73 115 -73 281zM87 405q0 -143 56 -238q68 -116 202 -116q62 0 115 34q92 60 141 168v109q0 153 -52 259q-68 137 -202 137h-2 q-132 0 -201 -116q-58 -96 -57 -237z" />
<glyph unicode="e" horiz-adv-x="685" d="M30 403q0 163 74 280q87 138 241 139q149 0 236 -133q75 -115 75 -273q0 -22 -4 -36h-564q6 -133 65 -224q72 -105 197 -105q63 0 126 27q68 29 101 76l40 -49q-90 -120 -267 -120q-157 0 -244 136q-76 116 -76 282zM88 446h511q-9 126 -68 211q-70 101 -186 101 q-118 0 -188 -101q-59 -85 -69 -211z" />
<glyph unicode="f" horiz-adv-x="327" d="M30 0v913q0 111 41 190q52 99 153 99q27 0 52 -7l58 -17v-65l-67 17q-20 5 -39 5q-145 0 -145 -230v-98h200v-67h-200v-740h-53z" />
<glyph unicode="g" d="M30 403q0 169 70 283q83 136 242 136q165 0 259 -179v164h54v-774q0 -169 -67 -280q-80 -134 -238 -134q-74 0 -130 20q-33 12 -122 60l19 70q107 -80 236 -80q131 0 195 112q53 91 53 232v112q-23 -38 -71 -83q-39 -37 -65 -49q-57 -28 -120 -28q-157 0 -242 137 q-73 115 -73 281zM87 405q0 -143 56 -238q68 -116 202 -116q68 0 120 34q84 52 136 154v123q0 153 -52 259q-68 137 -202 137h-2q-132 0 -201 -116q-58 -96 -57 -237z" />
<glyph unicode="h" horiz-adv-x="565" d="M30 0v1195h53v-532q75 160 211 160q129 0 192 -121q49 -95 50 -237v-465h-53v478q0 105 -41 183q-51 96 -148 96q-109 0 -166 -110q-45 -85 -45 -203v-5v-439h-53z" />
<glyph unicode="i" horiz-adv-x="137" d="M30 1034q0 49 38 49q40 0 40 -49q0 -51 -40 -51q-38 0 -38 51zM42 0v807h54v-807h-54z" />
<glyph unicode="j" horiz-adv-x="345" d="M30 -299h37q184 0 184 224v882h53v-889q0 -282 -237 -282h-37v65zM239 1034q0 49 39 49q38 0 38 -49q0 -51 -38 -51q-39 0 -39 51z" />
<glyph unicode="k" horiz-adv-x="584" d="M30 0v1195h54v-941l402 567h65l-289 -405l294 -415h-65l-260 372l-147 -206v-167h-54z" />
<glyph unicode="l" horiz-adv-x="113" d="M30 0v1195h54v-1195h-54z" />
<glyph unicode="m" horiz-adv-x="913" d="M30 0v494q0 8 1 21.5t1 20.5v271h53v-82q62 97 174 97q128 0 197 -157q73 157 198 157q121 0 182 -110q48 -87 48 -218v-494h-54v516q0 95 -38 161q-47 81 -135 81t-136 -81q-38 -67 -39 -161v-516h-52v516q0 95 -39 161q-47 81 -135 81q-74 0 -122 -62q-40 -53 -49 -133 v-563h-55z" />
<glyph unicode="n" horiz-adv-x="565" d="M30 2v806h54v-111q69 124 200 125q133 0 199 -123q53 -98 53 -243v-456h-53v478q0 108 -44 186q-55 94 -155 94q-101 0 -155 -83q-45 -72 -45 -178v-495h-1v-2h-52v2h-1z" />
<glyph unicode="o" horiz-adv-x="686" d="M30 403q0 163 74 280q87 138 241 139q153 0 239 -139q73 -116 73 -280q0 -163 -73 -280q-86 -138 -239 -138t-241 138q-74 118 -74 280zM144 169q70 -118 201 -118q128 0 197 118q59 99 59 236q0 138 -58 236q-68 117 -196 117h-2q-130 0 -201 -117q-57 -95 -57 -231 q0 -144 57 -241z" />
<glyph unicode="p" d="M30 -383v1216h54v-190q94 179 260 179q159 0 242 -136q69 -114 69 -283q0 -166 -72 -281q-86 -137 -242 -137q-60 0 -115 28q-91 46 -141 137v-534h-54zM85 253q48 -108 141 -168q53 -34 115 -34q132 0 201 116q57 96 57 238q0 140 -58 237q-69 116 -198 116h-2 q-138 0 -205 -137q-51 -105 -51 -259v-109z" />
<glyph unicode="q" d="M30 403q0 169 70 283q83 136 242 136q165 0 259 -179v190h54v-1217h-54v534q-50 -92 -141 -137q-55 -28 -115 -28q-157 0 -242 137q-73 115 -73 281zM87 405q0 -143 56 -238q68 -116 202 -116q62 0 115 34q92 60 141 168v109q0 153 -52 259q-68 137 -202 137h-2 q-132 0 -201 -116q-58 -96 -57 -237z" />
<glyph unicode="r" horiz-adv-x="397" d="M30 0v807h53v-158q75 161 217 161q11 -2 69 -12v-68h-4h1q0 1 -74 12h-2q-88 0 -149 -102q-58 -98 -58 -280v-360h-53z" />
<glyph unicode="s" horiz-adv-x="534" d="M30 88l48 38q44 -59 122 -59h103q148 0 148 135q0 116 -142 167l-120 43q-154 56 -154 206q0 189 195 189h61v1h35q118 0 170 -86l-48 -37q-43 57 -128 57h-109q-123 0 -123 -127q0 -96 126 -142l126 -46q166 -61 166 -220q0 -207 -242 -207h-64q-116 0 -170 88z" />
<glyph unicode="t" horiz-adv-x="257" d="M30 157v878h54v-228h169v-67h-169v-576q0 -98 54 -99h37v-65h-27q-118 0 -118 157z" />
<glyph unicode="u" horiz-adv-x="564" d="M30 350v457h53v-479q0 -110 44 -187q53 -93 156 -93q101 0 154 94q44 78 44 186v479h54v-457q0 -145 -53 -242q-67 -123 -199 -123q-134 0 -200 122q-53 97 -53 243z" />
<glyph unicode="v" horiz-adv-x="623" d="M30 807h58l201 -708q11 -38 22 -37q13 0 24 36l202 709h58l-214 -742q-23 -82 -68 -82q-46 0 -69 82z" />
<glyph unicode="w" horiz-adv-x="920" d="M30 807h58l201 -708q11 -38 22 -37q13 0 24 36l96 340l-106 369h59l201 -708q11 -38 22 -37q13 0 24 36l202 709h57l-213 -742q-24 -82 -69 -82q-46 0 -69 82l-79 271l-79 -271q-23 -82 -68 -82q-46 0 -69 82z" />
<glyph unicode="x" horiz-adv-x="599" d="M30 2l241 413l-241 404h58l212 -344l206 344h58l-234 -404l241 -413h-59l-212 352l-212 -352h-58z" />
<glyph unicode="y" horiz-adv-x="571" d="M30 -309l19 70q53 -51 117 -68q43 -12 74 -12q130 0 195 113q52 91 52 231v82q-70 -122 -198 -122q-134 0 -201 122q-51 95 -51 238v5v457h52v-479q0 -110 44 -187q53 -93 156 -93q101 0 155 94q43 78 43 186v479h54v-782q0 -169 -65 -279q-80 -134 -238 -135 q-110 0 -208 80z" />
<glyph unicode="z" horiz-adv-x="513" d="M30 80q0 34 33 86l338 533q8 13 8 22q0 21 -24 21h-323v65h316q89 0 89 -75q0 -39 -27 -83l-337 -530q-10 -16 -10 -28q0 -21 27 -21h365v-70h-373q-82 0 -82 80z" />
<glyph unicode="{" horiz-adv-x="462" d="M30 607v4h1h2q81 15 127 106q39 76 39 167l-1 221q5 163 38 217q43 74 197 75v-69q-114 0 -145 -52q-27 -46 -29 -156q0 -36 2 -101q3 -59 3 -101q2 -131 -14 -186q-26 -93 -105 -123q82 -30 104 -112q14 -53 13 -182q0 -18 -2 -73q-2 -52 0 -109q3 -148 27 -189 q30 -52 146 -52v-69h-27q-128 0 -170 75q-37 63 -37 236v201q0 236 -169 272z" />
<glyph unicode="|" horiz-adv-x="117" d="M30 -403v1709h58v-1709h-58z" />
<glyph unicode="}" horiz-adv-x="462" d="M30 -108q115 0 145 52q23 40 28 189q1 48 0 109l-2 73q-3 129 13 182q23 82 103 112q-79 30 -104 123q-15 55 -14 186q0 42 2 101q3 64 2 101q-1 110 -29 156q-31 53 -144 52v69q153 0 197 -75q33 -56 37 -217q-1 28 0 -221q0 -92 39 -167q45 -89 127 -106h1h2v-4 q-169 -37 -169 -272v-201q0 -173 -37 -236q-44 -75 -171 -75h-26v69z" />
<glyph unicode="~" horiz-adv-x="623" d="M30 740q33 66 66 94q46 39 118 34q37 -3 107 -26.5t107 -25.5q83 -7 132 47h34q-33 -64 -66 -92q-48 -41 -116 -37q-38 3 -110.5 26.5t-110.5 26.5q-83 5 -127 -47h-34z" />
<glyph unicode="&#xa1;" horiz-adv-x="157" d="M30 1024q0 65 49 65t49 -65q0 -63 -49 -62q-49 0 -49 62zM52 -133v975h56v-975h-56z" />
<glyph unicode="&#xa2;" horiz-adv-x="594" d="M30 403q0 163 74 280q87 138 241 139q33 0 62 -8l32 110l57 4l-38 -133q59 -31 108 -94l-40 -44q-38 53 -85 77l-188 -664q42 -19 92 -19q107 0 181 103l38 -46q-92 -123 -219 -123q-59 0 -110 23l-29 -101h-58l37 131q-35 28 -66 68q-89 120 -89 297zM87 405 q0 -150 70 -252q22 -31 47 -51l186 651q-22 5 -45 5q-130 0 -201 -117q-58 -97 -57 -236z" />
<glyph unicode="&#xa3;" horiz-adv-x="565" d="M30 573v69h48v161q0 392 221 392q35 0 76 -13l139 -42l-17 -71l-141 45q-27 8 -50 8q-94 0 -138 -112q-32 -80 -32 -190v-78h1v-100h294v-69h-294v-426q0 -60 52 -73h347v-68h-342q-56 0 -87 44q-28 40 -28 98v298h-1v127h-48z" />
<glyph unicode="&#xa4;" horiz-adv-x="513" d="M30 1142l36 47l75 -96q51 54 121 54q67 0 117 -48l64 84l37 -48l-65 -85q37 -63 36 -151q0 -93 -40 -157l74 -96l-37 -47l-74 97q-48 -44 -112 -44q-67 0 -116 49l-74 -96l-37 48l74 96q-38 63 -37 150q0 83 33 145zM118 901q0 -77 32 -131q39 -63 112 -63q72 0 111 64 q33 53 33 130q0 76 -33 130q-39 63 -111 63q-73 0 -112 -63q-33 -53 -32 -130z" />
<glyph unicode="&#xa5;" horiz-adv-x="689" d="M30 1195h58l257 -538l257 538h59l-272 -569h248v-65h-264v-236h264v-69h-264v-256h-54v256h-259v69h259v236h-259v65h242z" />
<glyph unicode="&#xa6;" horiz-adv-x="117" d="M30 -150v624h58v-624h-58zM30 679v632h58v-632h-58z" />
<glyph unicode="&#xa7;" horiz-adv-x="467" d="M30 -75l41 37q37 -58 102 -59h86q124 0 124 134q0 113 -119 165l-100 43q-9 4 -18 9q-41 12 -68 54q-43 55 -44 141q0 164 126 184q-120 62 -120 210q0 205 202 205h52q98 0 143 -88l-40 -37q-38 59 -103 59h-85q-124 0 -124 -134q0 -115 119 -166l100 -42q13 -6 18 -8 q40 -12 68 -55q44 -55 44 -142q0 -164 -127 -183q121 -63 121 -210q0 -204 -203 -205h-52q-97 0 -143 88zM79 445q0 -44 23 -77l2 2q9 -13 15 -23q17 -16 40 -28q15 -5 35 -5h92q102 0 102 125q0 44 -23 78l-1 -1q-9 13 -16 21q-17 16 -39 29q-14 5 -36 5h-92 q-102 0 -102 -126z" />
<glyph unicode="&#xa8;" horiz-adv-x="367" d="M30 1032q0 65 49 65q50 0 50 -65t-50 -65q-49 0 -49 65zM239 1032q0 65 50 65t50 -65t-50 -65q-49 0 -50 65z" />
<glyph unicode="&#xa9;" horiz-adv-x="932" d="M30 598q0 295 106 439q131 178 332 178q199 0 330 -181q105 -142 105 -436q0 -300 -122 -453q-133 -166 -313 -166q-201 0 -333 180q-105 143 -105 439zM91 600q0 -267 86 -388q114 -161 291 -161q175 0 289 162q86 121 86 387t-86 386q-114 160 -289 160 q-178 0 -291 -159q-86 -120 -86 -387zM208 597q0 148 66 254q78 125 217 125q118 0 206 -118l-36 -37q-71 98 -170 97q-118 0 -181 -105q-54 -88 -54 -214q0 -124 54 -214q64 -107 181 -107q96 0 171 102l26 -55q-86 -107 -197 -107q-139 0 -217 125q-66 107 -66 254z" />
<glyph unicode="&#xaa;" horiz-adv-x="540" d="M30 910q0 126 56 210q64 97 183 96q118 0 188 -111v101h54v-590h-54v91q-71 -103 -185 -102q-118 0 -184 97q-58 84 -58 208zM72 912q0 -107 46 -178q53 -83 154 -82q45 0 88 25q72 44 110 125v79q0 114 -41 192q-53 98 -157 98q-100 0 -154 -82q-46 -71 -46 -177z" />
<glyph unicode="&#xab;" horiz-adv-x="498" d="M30 408l206 265h67l-204 -265l204 -265h-67zM197 408l206 265h67l-204 -265l204 -265h-67z" />
<glyph unicode="&#xac;" horiz-adv-x="565" d="M30 381v69h506v-277h-50v208h-456z" />
<glyph unicode="&#xad;" horiz-adv-x="479" d="M30 380v68h420v-68h-420z" />
<glyph unicode="&#xae;" horiz-adv-x="932" d="M30 598q0 295 106 439q131 178 332 178q199 0 330 -181q105 -142 105 -436q0 -300 -122 -453q-133 -166 -313 -166q-201 0 -333 180q-105 143 -105 439zM91 600q0 -267 86 -388q114 -161 291 -161q175 0 289 162q86 121 86 387t-86 386q-114 160 -289 160 q-178 0 -291 -159q-86 -120 -86 -387zM304 234v650q0 94 76 94l103 -1q86 -1 133 -73q41 -63 41 -152q0 -133 -89 -197l92 -321h-49l-86 300q-30 -10 -68 -10h-105v-290h-48zM352 582h117q138 0 138 169q0 68 -27 113q-34 55 -97 55h-105q-26 -5 -26 -35v-302z" />
<glyph unicode="&#xaf;" horiz-adv-x="375" d="M30 991v83h316v-83h-316z" />
<glyph unicode="&#xb0;" horiz-adv-x="411" d="M30 981q0 93 41 155q48 73 136 74q87 0 134 -75q40 -62 40 -154q0 -93 -40 -155q-48 -73 -136 -73t-135 73q-40 63 -40 155zM70 981q0 -70 33 -120q38 -58 104 -58q65 0 103 59q34 50 34 119t-34 119q-38 58 -103 59q-66 0 -104 -58q-33 -50 -33 -120z" />
<glyph unicode="&#xb1;" horiz-adv-x="639" d="M30 5v68h575v-68h-575zM33 475v68h262v350h52v-350h263v-68h-263v-350h-52v350h-262z" />
<glyph unicode="&#xb2;" horiz-adv-x="392" d="M30 1014q16 217 167 216q83 0 128 -69q38 -59 38 -147q0 -77 -37 -139q-44 -72 -116 -72h-2q-104 0 -120 -131v-94q0 -30 25 -36h235v-57h-232q-75 0 -75 92v67q0 111 59 172q31 32 74 42h3q138 17 138 158q0 157 -118 157q-107 0 -122 -159h-45z" />
<glyph unicode="&#xb3;" horiz-adv-x="394" d="M30 547l34 38q47 -59 108 -59q70 0 110 56q35 50 35 124q0 157 -121 178h-79v53h78q98 16 98 117q0 118 -121 118q-51 0 -93 -42l-34 37q58 58 127 58q73 0 120.5 -48.5t47.5 -122.5q0 -94 -73 -143q98 -64 98 -206q0 -93 -49 -160q-54 -74 -144 -74q-78 0 -142 76z" />
<glyph unicode="&#xb4;" horiz-adv-x="276" d="M30 902l139 293h78l-139 -293h-78z" />
<glyph unicode="&#xb5;" horiz-adv-x="587" d="M30 -377v1186h54v-2h1v-479q0 -108 44 -186q54 -94 155 -94q41 0 76 16q8 6 15 9q32 20 56 56q52 78 52 199v479h54v-457q0 -161 -63 -259q-36 -57 -88 -83q-9 -14 -19 -27q-7 -14 -7 -40q0 -78 88 -82q13 -1 89.5 56t124.5 54v-61q-38 0 -111 -56.5t-101 -56.5 q-143 0 -144 150q0 22 4 41q-13 -1 -26 -1q-133 0 -200 124v-486h-54z" />
<glyph unicode="&#xb6;" horiz-adv-x="625" d="M30 849q0 146 65 245q75 115 214 116l172 1q55 0 87 -44q28 -40 28 -98v-1177h-58v1178q0 62 -52 73h-59v-1250h-54v591h-20q-148 0 -229 93q-94 109 -94 272z" />
<glyph unicode="&#xb7;" horiz-adv-x="157" d="M30 613q0 63 49 64q49 -1 49 -64q0 -65 -49 -65t-49 65z" />
<glyph unicode="&#xb8;" horiz-adv-x="415" d="M30 -206q48 3 124 -54t90 -56q88 3 87 82q0 83 -72 82q-39 0 -65 -35l1 235h44v-153q18 11 39 11q52 0 82 -44q27 -38 26 -92q0 -150 -144 -150q-28 0 -101 56.5t-111 56.5v61z" />
<glyph unicode="&#xb9;" horiz-adv-x="188" d="M30 1062v63l129 95v-739h-44v640z" />
<glyph unicode="&#xba;" horiz-adv-x="438" d="M30 914q0 97 45 167q53 81 144 81q93 0 146 -81q44 -69 44 -167t-44 -167q-53 -80 -146 -80q-92 0 -144 80q-45 69 -45 167zM76 915q0 -77 32 -130q39 -63 111 -63t111 63q33 54 34 130q0 77 -34 130q-38 65 -111 65q-72 0 -111 -65q-33 -53 -32 -130z" />
<glyph unicode="&#xbb;" horiz-adv-x="498" d="M30 143h67l206 265l-206 265h-67l204 -265zM197 143h67l206 265l-206 265h-67l203 -265z" />
<glyph unicode="&#xbc;" horiz-adv-x="861" d="M30 1062v63l129 95v-739h-44v640zM52 -21l609 1216h53l-610 -1216h-52zM437 254q0 26 14 51l254 441h48v-488h80v-54h-80v-203h-47v203h-210q-58 0 -59 50zM488 264q0 -6 17 -6h201v394l-214 -375q-4 -7 -4 -13z" />
<glyph unicode="&#xbd;" horiz-adv-x="898" d="M30 1062v63l129 95v-739h-44v640zM52 -21l609 1216h53l-610 -1216h-52zM536 530q16 216 167 216q83 0 128 -69q38 -59 38 -146q0 -78 -37 -140q-43 -73 -116 -73h-3q-104 0 -120 -130v-95q0 -29 26 -35h234v-57h-231q-75 0 -75 92v67q0 110 59 172q30 32 75 41h1 q69 9 99 40q41 43 41 118q0 157 -120 157q-108 0 -121 -158h-45z" />
<glyph unicode="&#xbe;" horiz-adv-x="939" d="M30 547l34 38q47 -59 108 -59q70 0 110 56q35 50 35 124q0 157 -121 178h-79v53h78q98 16 98 117q0 118 -121 118q-51 0 -93 -42l-34 37q58 58 127 58q73 0 120.5 -48.5t47.5 -122.5q0 -94 -73 -143q98 -64 98 -206q0 -93 -49 -160q-54 -74 -144 -74q-78 0 -142 76z M129 -21l609 1216h54l-610 -1216h-53zM515 254q0 26 14 51l253 441h49v-488h79v-54h-79v-203h-48v203h-210q-58 0 -58 50zM566 264q0 -6 16 -6h201v394l-213 -375q-4 -7 -4 -13z" />
<glyph unicode="&#xbf;" horiz-adv-x="573" d="M30 209q0 305 264 347v300h55v-370h-19q-118 0 -182 -81q-60 -75 -60 -197q0 -113 46 -187q56 -88 164 -88q92 0 147 74q23 31 33 82q3 21 12 109h54q-13 -178 -61 -241q-72 -93 -187 -92q-136 0 -206 109q-60 92 -60 235zM272 1023q0 65 49 65t49 -65q0 -63 -49 -64 q-49 0 -49 64z" />
<glyph unicode="&#xc0;" horiz-adv-x="662" d="M23 0v772q0 176 65 294q79 148 241 149q159 0 239 -150q64 -119 64 -293v-772h-57v593h-493v-593h-59zM82 660h493v87q0 400 -246 399q-247 0 -247 -399v-87zM216 1598l140 -293h78l-139 293h-79z" />
<glyph unicode="&#xc1;" horiz-adv-x="662" d="M23 0v772q0 176 65 294q79 148 241 149q159 0 239 -150q64 -119 64 -293v-772h-57v593h-493v-593h-59zM82 660h493v87q0 400 -246 399q-247 0 -247 -399v-87zM210 1305l138 293h79l-140 -293h-77z" />
<glyph unicode="&#xc2;" horiz-adv-x="669" d="M23 0v772q0 176 65 294q79 148 241 149q159 0 239 -150q64 -119 64 -293v-772h-57v593h-493v-593h-59zM82 660h493v87q0 400 -246 399q-247 0 -247 -399v-87zM139 1338l134 260h85l132 -260h-64l-111 198l-111 -198h-65z" />
<glyph unicode="&#xc3;" horiz-adv-x="672" d="M23 0v772q0 176 65 294q79 148 241 149q159 0 239 -150q64 -119 64 -293v-772h-57v593h-493v-593h-59zM82 660h493v87q0 400 -246 399q-247 0 -247 -399v-87zM133 1376q42 141 114 134q24 -3 67 -27.5t66 -26.5q52 -7 82 49h22q-22 -68 -41 -97q-29 -43 -73 -37 q-25 3 -69 27t-68 27q-52 6 -79 -49h-21z" />
<glyph unicode="&#xc4;" horiz-adv-x="662" d="M23 0v772q0 176 65 294q79 148 241 149q159 0 239 -150q64 -119 64 -293v-772h-57v593h-493v-593h-59zM82 660h493v87q0 400 -246 399q-247 0 -247 -399v-87zM152 1435q0 65 49 65q50 0 50 -65t-50 -65q-49 0 -49 65zM361 1435q0 65 49 65q50 0 50 -65t-50 -65 q-49 0 -49 65z" />
<glyph unicode="&#xc5;" horiz-adv-x="669" d="M30 0v772q0 176 63 294q80 148 242 149q159 0 240 -150q64 -119 64 -293v-772h-58v593h-493v-593h-58zM88 660h493v87q0 400 -246 399q-248 0 -247 -399v-87zM186 1451q0 78 34 132q41 63 115 62q74 0 115 -62q36 -54 36 -132t-36 -132q-41 -63 -115 -64q-74 0 -115 63 q-34 54 -34 133zM237 1451q0 -48 24 -85q28 -42 74 -42q47 0 75 42q25 37 25 85t-25 85q-28 43 -75 42q-47 0 -74 -42q-24 -37 -24 -85z" />
<glyph unicode="&#xc6;" horiz-adv-x="1068" d="M30 0v772q0 176 63 294q80 148 242 149q164 0 247 -165v29h1q0 58 28 97q31 44 86 44h342v-68h-347q-52 -10 -51 -73v-422h343v-66h-343v-449q0 -63 51 -73h347v-68h-342q-52 0 -85 47q-30 41 -30 95v32h-1v418h-493v-593h-58zM88 660h493v87q0 400 -246 399 q-248 0 -247 -399v-87z" />
<glyph unicode="&#xc7;" horiz-adv-x="849" d="M30 598q0 240 108 413q128 204 355 204q191 0 327 -181l-44 -45q-115 157 -283 157q-199 0 -309 -182q-93 -153 -93 -364q0 -214 92 -366q110 -183 310 -183q164 0 283 163l31 -69q-128 -161 -302 -166v-84q18 11 40 11q51 0 81 -44q27 -38 26 -92q0 -150 -143 -150 q-28 0 -101 56.5t-111 56.5v61q47 3 123.5 -54t89.5 -56q88 3 88 82q0 83 -72 82q-39 0 -65 -35l1 167q-181 13 -302 179q-130 177 -130 439z" />
<glyph unicode="&#xc8;" horiz-adv-x="507" d="M20 142v911h1q0 58 27 97q32 44 87 45h341v-69h-346q-53 -10 -52 -72v-422h342v-67h-342v-424q0 -63 52 -73h346v-68h-341q-53 0 -86 46q-29 41 -29 96zM148 1598l141 -293h76l-137 293h-80z" />
<glyph unicode="&#xc9;" horiz-adv-x="507" d="M20 142v911h1q0 58 27 97q32 44 87 45h341v-69h-346q-53 -10 -52 -72v-422h342v-67h-342v-424q0 -63 52 -73h346v-68h-341q-53 0 -86 46q-29 41 -29 96zM148 1305l138 293h79l-140 -293h-77z" />
<glyph unicode="&#xca;" horiz-adv-x="507" d="M20 142v911h1q0 58 27 97q32 44 87 45h341v-69h-346q-53 -10 -52 -72v-422h342v-67h-342v-424q0 -63 52 -73h346v-68h-341q-53 0 -86 46q-29 41 -29 96zM78 1338l133 260h85l133 -260h-64l-111 198l-111 -198h-65z" />
<glyph unicode="&#xcb;" horiz-adv-x="503" d="M20 142v911h1q0 58 27 97q32 44 87 45h341v-69h-346q-53 -10 -52 -72v-422h342v-67h-342v-424q0 -63 52 -73h346v-68h-341q-53 0 -86 46q-29 41 -29 96zM97 1435q0 65 49 65q50 0 50 -65t-50 -65q-49 0 -49 65zM306 1435q0 65 49 65q50 0 50 -65t-50 -65q-49 0 -49 65z " />
<glyph unicode="&#xcc;" horiz-adv-x="110" d="M-68 1598l139 -293h77l-138 293h-78zM26 0v1195h57v-1195h-57z" />
<glyph unicode="&#xcd;" horiz-adv-x="110" d="M-56 1305l139 293h78l-140 -293h-77zM26 0v1195h57v-1195h-57z" />
<glyph unicode="&#xce;" horiz-adv-x="155" d="M-105 1338l133 260h85l132 -260h-63l-111 198l-112 -198h-64zM41 0v1195h57v-1195h-57z" />
<glyph unicode="&#xcf;" horiz-adv-x="142" d="M-88 1435q0 65 48 65q50 0 50 -65t-50 -65q-48 0 -48 65zM38 0v1195h58v-1195h-58zM121 1435q0 65 48 65q50 0 50 -65t-50 -65q-48 0 -48 65z" />
<glyph unicode="&#xd0;" horiz-adv-x="818" d="M30 576v68h76l-1 439h1q0 58 27 97q31 44 87 45h157q194 1 308 -186q104 -171 104 -432q0 -238 -77 -396q-101 -209 -313 -208h-177q-40 0 -74 32q-42 40 -41 109l-1 432h-76zM164 143q0 -63 52 -72l179 -1q185 -1 271 189q63 139 62 350q0 231 -86 380q-96 167 -267 167 h-160q-52 -10 -51 -72v-440h286v-68h-286v-433z" />
<glyph unicode="&#xd1;" horiz-adv-x="679" d="M21 0v1097q0 108 74 108q50 0 80 -82l379 -1040q7 -18 17 -17q18 0 17 29v1100h59v-1092q0 -108 -75 -107q-50 0 -80 82l-379 1041q-6 18 -17 17q-17 0 -17 -31v-1105h-58zM154 1376q42 141 115 134q24 -3 66.5 -27.5t65.5 -26.5q53 -7 82 49h22q-21 -68 -41 -97 q-29 -43 -73 -37q-24 3 -68.5 27t-68.5 27q-52 6 -79 -49h-21z" />
<glyph unicode="&#xd2;" horiz-adv-x="910" d="M27 598q0 295 106 439q132 178 332 178q199 0 330 -181q105 -142 105 -436q0 -300 -123 -453q-133 -166 -312 -166q-201 0 -333 180q-105 143 -105 439zM88 600q0 -267 86 -388q114 -161 291 -161q175 0 289 162q85 121 85 387t-85 386q-114 160 -289 160 q-178 0 -291 -159q-86 -120 -86 -387zM355 1598l141 -293h76l-137 293h-80z" />
<glyph unicode="&#xd3;" horiz-adv-x="937" d="M33 598q0 295 106 439q131 178 331 178q199 0 332 -181q104 -142 104 -436q0 -300 -122 -453q-133 -166 -314 -166q-200 0 -332 180q-105 143 -105 439zM93 600q0 -267 87 -388q114 -161 290 -161t291 162q85 121 85 387t-85 386q-114 160 -291 160t-290 -159 q-87 -120 -87 -387zM355 1305l138 293h79l-140 -293h-77z" />
<glyph unicode="&#xd4;" horiz-adv-x="934" d="M33 598q0 295 106 439q131 178 331 178q199 0 332 -181q104 -142 104 -436q0 -300 -122 -453q-133 -166 -314 -166q-200 0 -332 180q-105 143 -105 439zM93 600q0 -267 87 -388q114 -161 290 -161t291 162q85 121 85 387t-85 386q-114 160 -291 160t-290 -159 q-87 -120 -87 -387zM284 1338l134 260h85l133 -260h-65l-111 198l-110 -198h-66z" />
<glyph unicode="&#xd5;" horiz-adv-x="937" d="M33 598q0 295 106 439q131 178 331 178q199 0 332 -181q104 -142 104 -436q0 -300 -122 -453q-133 -166 -314 -166q-200 0 -332 180q-105 143 -105 439zM93 600q0 -267 87 -388q114 -161 290 -161t291 162q85 121 85 387t-85 386q-114 160 -291 160t-290 -159 q-87 -120 -87 -387zM278 1376q42 141 114 134q24 -3 67 -27.5t67 -26.5q52 -7 81 49h22q-22 -68 -41 -97q-29 -43 -72 -37q-25 3 -69.5 27t-68.5 27q-52 6 -79 -49h-21z" />
<glyph unicode="&#xd6;" horiz-adv-x="930" d="M27 598q0 295 106 439q132 178 332 178q199 0 330 -181q105 -142 105 -436q0 -300 -123 -453q-133 -166 -312 -166q-201 0 -333 180q-105 143 -105 439zM88 600q0 -267 86 -388q114 -161 291 -161q175 0 289 162q85 121 85 387t-85 386q-114 160 -289 160 q-178 0 -291 -159q-86 -120 -86 -387zM298 1435q0 65 48 65q50 0 50 -65t-50 -65q-48 0 -48 65zM507 1435q0 65 49 65q50 0 50 -65t-50 -65q-48 0 -49 65z" />
<glyph unicode="&#xd7;" horiz-adv-x="514" d="M30 757l37 47l191 -248l185 242l38 -48l-187 -242l191 -247l-37 -47l-189 247l-186 -241l-38 49l186 241z" />
<glyph unicode="&#xd8;" horiz-adv-x="932" d="M30 598q0 295 106 439q131 178 332 178q78 0 145 -28l28 99h58l-36 -124q74 -45 135 -128q105 -143 105 -436q0 -300 -122 -453q-133 -166 -313 -166q-73 0 -137 24l-25 -84h-58l31 108q-80 45 -144 132q-105 143 -105 439zM91 600q0 -267 86 -388q54 -76 122 -116 l295 1026q-58 24 -126 24q-178 0 -291 -159q-86 -120 -86 -387zM350 71q54 -20 118 -20q175 0 289 162q85 121 86 387q0 266 -86 386q-50 71 -113 110z" />
<glyph unicode="&#xd9;" horiz-adv-x="652" d="M23 422v773h59v-744q0 -400 247 -400q246 0 246 400v744h57v-773q0 -174 -63 -294q-80 -149 -240 -149q-163 0 -242 149q-63 117 -64 294zM210 1598l140 -293h77l-138 293h-79z" />
<glyph unicode="&#xda;" horiz-adv-x="662" d="M23 422v773h59v-744q0 -400 247 -400q246 0 246 400v744h57v-773q0 -174 -63 -294q-80 -149 -240 -149q-163 0 -242 149q-63 117 -64 294zM223 1305l138 293h79l-140 -293h-77z" />
<glyph unicode="&#xdb;" horiz-adv-x="662" d="M23 422v773h59v-744q0 -400 247 -400q246 0 246 400v744h57v-773q0 -174 -63 -294q-80 -149 -240 -149q-163 0 -242 149q-63 117 -64 294zM152 1338l134 260h84l133 -260h-63l-112 198l-111 -198h-65z" />
<glyph unicode="&#xdc;" horiz-adv-x="641" d="M23 422v773h59v-744q0 -400 247 -400q246 0 246 400v744h57v-773q0 -174 -63 -294q-80 -149 -240 -149q-163 0 -242 149q-63 117 -64 294zM172 1435q0 65 48 65q50 0 50 -65t-50 -65q-48 0 -48 65zM381 1435q0 65 49 65q50 0 50 -65t-50 -65q-48 0 -49 65z" />
<glyph unicode="&#xdd;" horiz-adv-x="672" d="M20 1195h58l257 -538l257 538h58l-288 -602v-593h-53v591zM224 1305l139 293h79l-140 -293h-78z" />
<glyph unicode="&#xde;" horiz-adv-x="646" d="M30 -4v1224h54v-357q76 145 260 146q272 0 272 -369q0 -368 -275 -368q-93 0 -143 17q-73 26 -113 98v-392h-54zM85 490q68 -152 256 -152q219 0 219 304t-219 303q-256 0 -256 -346v-109z" />
<glyph unicode="&#xdf;" horiz-adv-x="727" d="M30 645l88 -2v105h-8l-77 70h85q8 182 43 263q56 130 206 130q92 0 151 -86q52 -76 53 -172q2 -89 -45 -140q-29 -31 -91 -56q-48 -21 -48 -36q-1 -13 78 -77q98 -81 149 -151q82 -113 83 -239q3 -152 -76 -266q-89 -129 -235 -121l-163 8v60q48 -13 100 -13 q128 0 216 75q103 88 105 256q0 110 -82 203q-11 13 -153 136q-81 71 -79 130q2 56 51 79l89 40q47 33 46 112q-2 68 -39 126q-43 67 -107 67q-198 0 -197 -313v-833h-55v575l-5 1z" />
<glyph unicode="&#xe0;" horiz-adv-x="671" d="M18 403q0 169 70 283q83 136 242 136q165 0 258 -179v165h54v-808h-54v150q-51 -92 -141 -137q-54 -28 -115 -28q-156 0 -242 137q-72 115 -72 281zM74 405q0 -143 56 -238q68 -116 202 -116q62 0 115 34q93 60 141 168v109q0 153 -52 259q-68 138 -204 137 q-131 0 -200 -116q-58 -96 -58 -237zM223 1195l140 -293h77l-138 293h-79z" />
<glyph unicode="&#xe1;" horiz-adv-x="671" d="M18 403q0 169 70 283q83 136 242 136q165 0 258 -179v165h54v-808h-54v150q-51 -92 -141 -137q-54 -28 -115 -28q-156 0 -242 137q-72 115 -72 281zM74 405q0 -143 56 -238q68 -116 202 -116q62 0 115 34q93 60 141 168v109q0 153 -52 259q-68 138 -204 137 q-131 0 -200 -116q-58 -96 -58 -237zM216 902l139 293h79l-140 -293h-78z" />
<glyph unicode="&#xe2;" horiz-adv-x="671" d="M18 403q0 169 70 283q83 136 242 136q165 0 258 -179v165h54v-808h-54v150q-51 -92 -141 -137q-54 -28 -115 -28q-156 0 -242 137q-72 115 -72 281zM74 405q0 -143 56 -238q68 -116 202 -116q62 0 115 34q93 60 141 168v109q0 153 -52 259q-68 138 -204 137 q-131 0 -200 -116q-58 -96 -58 -237zM165 935l134 260h85l132 -260h-64l-111 198l-111 -198h-65z" />
<glyph unicode="&#xe3;" horiz-adv-x="671" d="M18 403q0 169 70 283q83 136 242 136q165 0 258 -179v165h54v-808h-54v150q-51 -92 -141 -137q-54 -28 -115 -28q-156 0 -242 137q-72 115 -72 281zM74 405q0 -143 56 -238q68 -116 202 -116q62 0 115 34q93 60 141 168v109q0 153 -52 259q-68 138 -204 137 q-131 0 -200 -116q-58 -96 -58 -237zM172 974q42 141 114 133q23 -3 66 -27.5t67 -26.5q53 -7 82 49h21q-21 -68 -41 -97q-29 -43 -72 -37q-25 3 -69.5 27t-68.5 27q-52 6 -78 -48h-21z" />
<glyph unicode="&#xe4;" horiz-adv-x="671" d="M18 403q0 169 70 283q83 136 242 136q165 0 258 -179v165h54v-808h-54v150q-51 -92 -141 -137q-54 -28 -115 -28q-156 0 -242 137q-72 115 -72 281zM74 405q0 -143 56 -238q68 -116 202 -116q62 0 115 34q93 60 141 168v109q0 153 -52 259q-68 138 -204 137 q-131 0 -200 -116q-58 -96 -58 -237zM178 1032q0 65 49 65q50 0 50 -65t-50 -65q-49 0 -49 65zM387 1032q0 65 49 65q50 0 50 -65t-50 -65q-49 0 -49 65z" />
<glyph unicode="&#xe5;" d="M30 403q0 169 70 283q83 136 242 136q165 0 259 -179v165h54v-808h-54v150q-51 -92 -141 -137q-55 -28 -115 -28q-157 0 -242 137q-73 115 -73 281zM87 405q0 -143 56 -238q68 -116 202 -116q62 0 115 34q92 60 141 168v109q0 153 -52 259q-68 138 -204 137 q-132 0 -201 -116q-58 -96 -57 -237zM186 1073q0 78 35 132q41 63 115 63t115 -63q36 -54 36 -132t-36 -132q-41 -63 -115 -63q-75 0 -116 63q-34 53 -34 132zM239 1073q0 -48 24 -86q28 -42 74 -42q47 0 73 43q25 37 25 85t-25 86q-27 43 -73 42q-46 0 -74 -42 q-24 -38 -24 -86z" />
<glyph unicode="&#xe6;" horiz-adv-x="1257" d="M30 403q0 169 70 283q83 136 242 136q165 0 259 -179v165h54v-166q90 181 261 181q150 0 237 -133q74 -114 74 -273q0 -22 -2 -37h-566q7 -133 67 -222q72 -106 197 -106q62 0 125 27q67 29 102 76l39 -49q-41 -56 -120 -89q-73 -31 -146 -31q-176 0 -268 178v-164h-54 v150q-51 -92 -141 -137q-55 -28 -115 -28q-157 0 -242 137q-73 115 -73 281zM87 405q0 -143 56 -238q68 -116 202 -116q62 0 115 34q92 60 141 168v109q0 153 -52 259q-68 138 -204 137q-132 0 -201 -116q-58 -96 -57 -237zM660 447h511q-10 127 -68 211q-69 101 -187 101 q-117 0 -188 -101q-58 -85 -68 -211z" />
<glyph unicode="&#xe7;" horiz-adv-x="594" d="M30 403q0 163 74 280q87 138 241 139q129 0 221 -121l-40 -44q-75 102 -181 101q-130 0 -201 -117q-58 -97 -57 -236q0 -139 57 -236q70 -118 201 -118q107 0 181 103l38 -46q-81 -108 -190 -121v-92q18 11 40 11q51 0 81 -44q27 -38 26 -92q0 -150 -143 -150 q-28 0 -101 56.5t-111 56.5v61q47 3 123.5 -54t89.5 -56q88 3 88 82q0 83 -72 82q-39 0 -65 -35l1 172q-148 8 -230 144q-71 116 -71 274z" />
<glyph unicode="&#xe8;" horiz-adv-x="673" d="M18 403q0 163 74 280q87 138 240 139q149 0 236 -133q76 -115 76 -273q0 -22 -3 -36h-566q6 -133 67 -224q71 -105 197 -105q62 0 125 27q67 29 102 76l39 -49q-89 -120 -266 -120q-157 0 -246 136q-75 116 -75 282zM76 446h511q-9 126 -68 211q-70 101 -187 101 q-118 0 -188 -101q-59 -85 -68 -211zM224 1195l141 -293h76l-138 293h-79z" />
<glyph unicode="&#xe9;" horiz-adv-x="673" d="M18 403q0 163 74 280q87 138 240 139q149 0 236 -133q76 -115 76 -273q0 -22 -3 -36h-566q6 -133 67 -224q71 -105 197 -105q62 0 125 27q67 29 102 76l39 -49q-89 -120 -266 -120q-157 0 -246 136q-75 116 -75 282zM76 446h511q-9 126 -68 211q-70 101 -187 101 q-118 0 -188 -101q-59 -85 -68 -211zM230 902l139 293h79l-140 -293h-78z" />
<glyph unicode="&#xea;" horiz-adv-x="673" d="M18 403q0 163 74 280q87 138 240 139q149 0 236 -133q76 -115 76 -273q0 -22 -3 -36h-566q6 -133 67 -224q71 -105 197 -105q62 0 125 27q67 29 102 76l39 -49q-89 -120 -266 -120q-157 0 -246 136q-75 116 -75 282zM76 446h511q-9 126 -68 211q-70 101 -187 101 q-118 0 -188 -101q-59 -85 -68 -211zM166 935l134 260h85l132 -260h-63l-112 198l-111 -198h-65z" />
<glyph unicode="&#xeb;" horiz-adv-x="673" d="M18 403q0 163 74 280q87 138 240 139q149 0 236 -133q76 -115 76 -273q0 -22 -3 -36h-566q6 -133 67 -224q71 -105 197 -105q62 0 125 27q67 29 102 76l39 -49q-89 -120 -266 -120q-157 0 -246 136q-75 116 -75 282zM76 446h511q-9 126 -68 211q-70 101 -187 101 q-118 0 -188 -101q-59 -85 -68 -211zM179 1032q0 65 49 65q50 0 50 -65t-50 -65q-48 0 -49 65zM389 1032q0 65 48 65q50 0 50 -65t-50 -65q-48 0 -48 65z" />
<glyph unicode="&#xec;" horiz-adv-x="101" d="M-68 1195l139 -293h77l-138 293h-78zM18 0v807h55v-807h-55z" />
<glyph unicode="&#xed;" horiz-adv-x="108" d="M-68 902l137 293h79l-140 -293h-76zM25 0v807h54v-807h-54z" />
<glyph unicode="&#xee;" horiz-adv-x="125" d="M-118 935l133 260h85l133 -260h-64l-111 198l-111 -198h-65zM33 0v807h55v-807h-55z" />
<glyph unicode="&#xef;" horiz-adv-x="157" d="M-76 1032q0 65 49 65q50 0 50 -65t-50 -65q-49 0 -49 65zM50 0v807h54v-807h-54zM133 1032q0 65 50 65t50 -65t-50 -65q-49 0 -50 65z" />
<glyph unicode="&#xf0;" horiz-adv-x="750" d="M30 403q0 169 70 283q83 136 242 136q165 0 259 -179v295q-28 -8 -63 -5q-38 3 -110.5 26t-110.5 25q-82 6 -126 -46h-33q32 66 64 94q47 38 119 34q37 -3 107.5 -26t106.5 -26q24 -2 46 2v175h54v-156q17 10 31 27h36q-34 -66 -67 -93l-1 -1l-6 -702q-12 -164 -188 -253 q-55 -28 -115 -28q-157 0 -242 136q-73 116 -73 282zM87 405q0 -143 56 -238q68 -116 202 -116q62 0 115 34q92 59 141 168v109q0 153 -52 259q-68 138 -204 137q-132 0 -201 -116q-57 -96 -57 -237z" />
<glyph unicode="&#xf1;" horiz-adv-x="577" d="M29 2v806h54v-111q69 124 200 125q133 0 199 -123q53 -98 53 -243v-456h-53v478q0 108 -44 186q-54 94 -155 94q-100 0 -155 -84q-45 -71 -45 -177v-495v-2h-53v2h-1zM119 974q42 141 115 133q24 -3 66.5 -27.5t66.5 -26.5q52 -7 81 49h22q-22 -68 -41 -97 q-28 -43 -73 -37q-24 3 -68 27t-69 27q-52 6 -78 -48h-22z" />
<glyph unicode="&#xf2;" horiz-adv-x="674" d="M18 403q0 163 74 280q87 138 240 139q154 0 240 -139q73 -116 73 -280q0 -163 -74 -280q-86 -138 -239 -138t-240 138q-73 118 -74 280zM74 405q0 -139 59 -236q69 -118 199 -118q128 0 198 118q58 99 58 236q0 138 -57 236q-69 118 -199 117q-130 0 -199 -117 q-58 -97 -59 -236zM219 1195l140 -293h77l-138 293h-79z" />
<glyph unicode="&#xf3;" horiz-adv-x="674" d="M18 403q0 163 74 280q87 138 240 139q154 0 240 -139q73 -116 73 -280q0 -163 -74 -280q-86 -138 -239 -138t-240 138q-73 118 -74 280zM74 405q0 -139 59 -236q69 -118 199 -118q128 0 198 118q58 99 58 236q0 138 -57 236q-69 118 -199 117q-130 0 -199 -117 q-58 -97 -59 -236zM232 902l138 293h79l-140 -293h-77z" />
<glyph unicode="&#xf4;" horiz-adv-x="674" d="M18 403q0 163 74 280q87 138 240 139q154 0 240 -139q73 -116 73 -280q0 -163 -74 -280q-86 -138 -239 -138t-240 138q-73 118 -74 280zM74 405q0 -139 59 -236q69 -118 199 -118q128 0 198 118q58 99 58 236q0 138 -57 236q-69 118 -199 117q-130 0 -199 -117 q-58 -97 -59 -236zM174 935l134 260h84l133 -260h-64l-111 198l-111 -198h-65z" />
<glyph unicode="&#xf5;" horiz-adv-x="674" d="M18 403q0 163 74 280q87 138 240 139q154 0 240 -139q73 -116 73 -280q0 -163 -74 -280q-86 -138 -239 -138t-240 138q-73 118 -74 280zM74 405q0 -139 59 -236q69 -118 199 -118q128 0 198 118q58 99 58 236q0 138 -57 236q-69 118 -199 117q-130 0 -199 -117 q-58 -97 -59 -236zM148 974q42 141 115 133q24 -3 66.5 -27.5t65.5 -26.5q53 -7 82 49h22q-21 -68 -41 -97q-29 -43 -73 -37q-24 3 -68.5 27t-68.5 27q-51 6 -79 -48h-21z" />
<glyph unicode="&#xf6;" horiz-adv-x="674" d="M18 403q0 163 74 280q87 138 240 139q154 0 240 -139q73 -116 73 -280q0 -163 -74 -280q-86 -138 -239 -138t-240 138q-73 118 -74 280zM74 405q0 -139 59 -236q69 -118 199 -118q128 0 198 118q58 99 58 236q0 138 -57 236q-69 118 -199 117q-130 0 -199 -117 q-58 -97 -59 -236zM174 1032q0 65 49 65q50 0 50 -65t-50 -65q-48 0 -49 65zM384 1032q0 65 48 65q50 0 50 -65t-50 -65q-48 0 -48 65z" />
<glyph unicode="&#xf7;" horiz-adv-x="700" d="M30 475v68h642v-68h-642zM289 220q0 84 62 84q64 0 64 -84q0 -82 -64 -82q-63 0 -62 82zM289 798q0 83 62 82q64 1 64 -82t-64 -84q-63 0 -62 84z" />
<glyph unicode="&#xf8;" horiz-adv-x="686" d="M30 403q0 163 74 280q87 138 241 139q43 0 80 -12l26 93h59l-34 -115q52 -30 93 -86q88 -120 88 -299q0 -163 -73 -280q-86 -138 -239 -138q-50 0 -95 17l-21 -75h-58l28 101q-43 28 -80 78q-89 121 -89 297zM87 405q0 -150 70 -252q28 -40 61 -63l189 660q-29 8 -62 8 q-130 0 -201 -117q-58 -97 -57 -236zM269 63q35 -13 76 -12q128 0 197 118q58 98 59 236q0 150 -70 250q-31 46 -72 72z" />
<glyph unicode="&#xf9;" horiz-adv-x="554" d="M29 350v457h53v-479q0 -110 43 -187q54 -93 156 -93q101 0 154 94q44 78 45 186v479h54v-457q0 -145 -53 -242q-66 -123 -200 -123t-200 122q-52 97 -52 243zM170 1195l140 -293h77l-138 293h-79z" />
<glyph unicode="&#xfa;" horiz-adv-x="558" d="M29 350v457h53v-479q0 -110 43 -187q54 -93 156 -93q101 0 154 94q44 78 45 186v479h54v-457q0 -145 -53 -242q-66 -123 -200 -123t-200 122q-52 97 -52 243zM183 902l138 293h79l-140 -293h-77z" />
<glyph unicode="&#xfb;" horiz-adv-x="558" d="M29 350v457h53v-479q0 -110 43 -187q54 -93 156 -93q101 0 154 94q44 78 45 186v479h54v-457q0 -145 -53 -242q-66 -123 -200 -123t-200 122q-52 97 -52 243zM106 935l133 260h86l131 -260h-63l-111 198l-111 -198h-65z" />
<glyph unicode="&#xfc;" horiz-adv-x="561" d="M29 350v457h53v-479q0 -110 43 -187q54 -93 156 -93q101 0 154 94q44 78 45 186v479h54v-457q0 -145 -53 -242q-66 -123 -200 -123t-200 122q-52 97 -52 243zM118 1032q0 65 50 65t50 -65t-50 -65q-49 0 -50 65zM328 1032q0 65 49 65q50 0 50 -65t-50 -65q-49 0 -49 65z " />
<glyph unicode="&#xfd;" horiz-adv-x="561" d="M23 -309l18 70q54 -51 118 -68q43 -12 74 -12q130 0 194 113q53 91 53 231v82q-70 -122 -199 -122q-134 0 -200 122q-52 97 -52 243v457h53v-479q0 -110 43 -187q54 -93 156 -93q101 0 154 94q44 78 45 186v479h54v-782q0 -169 -66 -279q-81 -134 -238 -135 q-110 0 -207 80zM177 902l137 293h80l-140 -293h-77z" />
<glyph unicode="&#xfe;" d="M30 -382v1599h54v-573q94 179 260 179q159 0 242 -136q69 -114 69 -283q0 -166 -72 -281q-86 -137 -242 -137q-60 0 -115 27q-91 46 -141 138v-534h-54zM85 254q48 -108 141 -168q53 -34 115 -34q132 0 201 116q57 95 57 237q0 140 -58 237q-70 117 -200 117 q-139 0 -206 -137q-50 -104 -50 -259v-109z" />
<glyph unicode="&#xff;" horiz-adv-x="568" d="M29 -309l19 70q54 -51 117 -68q43 -12 74 -12q130 0 195 113q53 91 52 231v82q-70 -122 -198 -122q-134 0 -200 122q-53 97 -53 243v457h53v-479q0 -110 44 -187q53 -93 156 -93q101 0 154 94q44 78 44 186v479h55v-782q0 -169 -67 -279q-80 -134 -238 -135 q-109 0 -207 80zM118 1032q0 65 50 65t50 -65t-50 -65q-49 0 -50 65zM328 1032q0 65 49 65q50 0 50 -65t-50 -65q-49 0 -49 65z" />
<glyph unicode="&#x152;" horiz-adv-x="1056" d="M30 598q0 159 13 240q20 118 80 199q131 178 325 178q87 0 160 -35q32 36 78 35h342v-68h-347q-7 -2 -12 -4q145 -110 179 -290q15 -78 16 -217h108v-67h-108q-1 -140 -19 -228q-25 -115 -89 -196q-45 -56 -85 -86q5 -3 10 -3h347v-69h-342q-38 0 -72 34 q-76 -42 -166 -42q-194 0 -326 180q-59 80 -79 199q-13 83 -13 240zM91 600q0 -153 8 -212q14 -105 65 -176q114 -161 284 -161q72 -1 132 27q-8 26 -9 51v945q0 25 6 46q-59 26 -129 26q-170 0 -284 -159q-51 -71 -65 -174q-8 -62 -8 -213zM629 128q0 -11 3 -20 q135 98 162 267q10 66 10 194h-175v-441zM629 636h175q0 123 -11 190q-27 169 -163 264q-1 -8 -1 -16v-438z" />
<glyph unicode="&#x153;" horiz-adv-x="1064" d="M30 403q0 163 74 280q87 138 241 139q110 0 190 -80q79 80 188 80q149 0 236 -133q75 -115 75 -273q0 -22 -2 -36h-375q-5 -158 -83 -268q65 -61 156 -61q62 0 125 27q67 29 102 76l39 -49q-89 -120 -266 -120q-114 0 -195 80q-79 -80 -190 -80q-153 0 -241 138 q-74 118 -74 280zM87 405q0 -139 57 -236q70 -118 201 -118q86 0 149 61q-85 117 -85 291t87 294q-63 62 -151 61q-130 0 -201 -117q-58 -97 -57 -236zM466 380q6 -133 67 -221q62 92 67 221h-134zM467 446h132q-8 120 -65 205q-58 -83 -67 -205zM572 697q74 -103 84 -251 h323q-9 126 -69 211q-70 101 -187 101q-88 0 -151 -61z" />
<glyph unicode="&#x178;" horiz-adv-x="689" d="M27 1195h57l258 -538l257 538h58l-288 -602v-593h-55v591zM199 1435q0 65 49 65q50 0 50 -65t-50 -65q-48 0 -49 65zM409 1435q0 65 48 65q50 0 50 -65t-50 -65q-48 0 -48 65z" />
<glyph unicode="&#x2c6;" horiz-adv-x="410" d="M30 935l134 260h85l132 -260h-64l-111 198l-111 -198h-65z" />
<glyph unicode="&#x2dc;" horiz-adv-x="410" d="M30 974q42 141 114 133q24 -3 67 -27.5t67 -26.5q52 -7 81 49h22q-22 -68 -41 -97q-28 -43 -73 -37q-24 3 -69 27t-68 27q-52 6 -78 -48h-22z" />
<glyph unicode="&#x2000;" horiz-adv-x="822" />
<glyph unicode="&#x2001;" horiz-adv-x="1645" />
<glyph unicode="&#x2002;" horiz-adv-x="822" />
<glyph unicode="&#x2003;" horiz-adv-x="1645" />
<glyph unicode="&#x2004;" horiz-adv-x="548" />
<glyph unicode="&#x2005;" horiz-adv-x="411" />
<glyph unicode="&#x2006;" horiz-adv-x="274" />
<glyph unicode="&#x2007;" horiz-adv-x="274" />
<glyph unicode="&#x2008;" horiz-adv-x="205" />
<glyph unicode="&#x2009;" horiz-adv-x="329" />
<glyph unicode="&#x200a;" horiz-adv-x="91" />
<glyph unicode="&#x2010;" horiz-adv-x="479" d="M30 380v68h420v-68h-420z" />
<glyph unicode="&#x2011;" horiz-adv-x="479" d="M30 380v68h420v-68h-420z" />
<glyph unicode="&#x2012;" horiz-adv-x="479" d="M30 380v68h420v-68h-420z" />
<glyph unicode="&#x2013;" horiz-adv-x="717" d="M30 380v68h658v-68h-658z" />
<glyph unicode="&#x2014;" horiz-adv-x="1112" d="M30 380v68h1052v-68h-1052z" />
<glyph unicode="&#x2018;" horiz-adv-x="166" d="M30 1005q0 13 2 23v1l46 183h59l-32 -147q28 -14 28 -59q0 -63 -54 -63h-1v-1v1q-48 1 -48 62z" />
<glyph unicode="&#x2019;" horiz-adv-x="166" d="M30 942l33 147q-28 14 -29 60q0 63 54 62h1v1v-1q48 0 48 -62q0 -12 -2 -22l1 -1l-47 -184h-59z" />
<glyph unicode="&#x201a;" horiz-adv-x="166" d="M30 -140l33 148q-28 14 -29 59q0 63 54 62h1v1v-1q48 0 48 -62q0 -12 -2 -22l1 -1l-47 -184h-59z" />
<glyph unicode="&#x201c;" horiz-adv-x="327" d="M30 1005q0 13 2 23l-1 1l47 183h59l-32 -147q28 -14 28 -59q0 -63 -54 -63h-1q-48 1 -48 62zM191 1005q0 13 1 23l-1 1l48 183h59l-33 -147q28 -14 29 -59q0 -63 -55 -63q-48 1 -48 62z" />
<glyph unicode="&#x201d;" horiz-adv-x="327" d="M30 942l33 147q-29 14 -30 60q0 63 55 62l1 1v-1q48 0 48 -62q0 -12 -2 -22v-1l-46 -184h-59zM191 942l32 147q-28 14 -29 60q0 63 55 62l1 1v-1q48 0 48 -62q0 -12 -3 -22l1 -1l-46 -184h-59z" />
<glyph unicode="&#x201e;" horiz-adv-x="333" d="M30 -140l33 148q-28 14 -29 59q0 63 54 62h1v1v-1q48 0 48 -62q0 -12 -2 -22l1 -1l-47 -184h-59zM197 -140l32 148q-28 14 -28 59q0 63 54 62h1v1v-1q48 0 48 -62q0 -12 -1 -22v-1l-47 -184h-59z" />
<glyph unicode="&#x2022;" horiz-adv-x="414" d="M30 636q0 112 33 164q42 65 145 65t144 -66q33 -52 33 -163q0 -112 -33 -165q-42 -67 -145 -66q-103 0 -144 66q-33 53 -33 165z" />
<glyph unicode="&#x2026;" horiz-adv-x="861" d="M49 57q0 63 50 62q49 1 49 -62q0 -65 -49 -65q-50 0 -50 65zM372 57q0 63 49 62q49 1 49 -62q0 -65 -49 -65t-49 65zM702 57q0 63 50 62q48 1 48 -62q0 -65 -48 -65q-49 0 -50 65z" />
<glyph unicode="&#x202f;" horiz-adv-x="329" />
<glyph unicode="&#x2039;" horiz-adv-x="332" d="M30 408l206 265h67l-204 -265l204 -265h-67z" />
<glyph unicode="&#x203a;" horiz-adv-x="332" d="M30 143h67l206 265l-206 265h-67l204 -265z" />
<glyph unicode="&#x205f;" horiz-adv-x="411" />
<glyph unicode="&#x2122;" horiz-adv-x="859" d="M30 1155v50h329v-50h-143v-573h-44v573h-142zM385 582v574q0 57 45 57q35 0 47 -47l129 -528l1 -4q1 3 3 8l128 524q11 47 47 47q44 0 44 -56l1 -572h-44l-1 574q0 5 -2 5q-2 -3 -2 -9l-126 -515q-15 -61 -48 -61t-47 61l-125 515q-2 8 -4 9q-2 -3 -1 -5v-577h-45z" />
<glyph unicode="&#x25fc;" horiz-adv-x="817" d="M0 0v818h818v-818h-818z" />
</font>
</defs>
</svg>
